<svg width="68" height="68" viewBox="0 0 68 68" fill="none" xmlns="http://www.w3.org/2000/svg">
<path d="M62.3346 32.5833V43.9166C62.3346 53.8333 56.668 58.0833 48.168 58.0833H19.8346C11.3346 58.0833 5.66797 53.8333 5.66797 43.9166V24.0833C5.66797 14.1666 11.3346 9.91663 19.8346 9.91663H34.0013" stroke="#007D9C" stroke-width="2.5" stroke-miterlimit="10" stroke-linecap="round" stroke-linejoin="round"/>
<path d="M19.832 25.5L28.7004 32.5833C31.6187 34.9067 36.407 34.9067 39.3254 32.5833" stroke="#007D9C" stroke-width="2.5" stroke-miterlimit="10" stroke-linecap="round" stroke-linejoin="round"/>
<path d="M55.1922 7.98996L55.9855 9.60493C56.3822 10.3983 57.3738 11.135 58.2521 11.305L59.3288 11.4749C62.5588 12.0133 63.3238 14.3933 61.0005 16.7449L60.0088 17.7366C59.3571 18.4166 58.9888 19.7199 59.1872 20.6266L59.3288 21.2216C60.2071 25.1316 58.1388 26.6332 54.7388 24.5932L54.0021 24.1683C53.1238 23.6583 51.7071 23.6583 50.8288 24.1683L50.0921 24.5932C46.6638 26.6616 44.5955 25.1316 45.5021 21.2216L45.6438 20.6266C45.8421 19.7199 45.4738 18.4166 44.8222 17.7366L43.8305 16.7449C41.5071 14.3933 42.2721 12.0133 45.5021 11.4749L46.5788 11.305C47.4288 11.1633 48.4488 10.3983 48.8454 9.60493L49.6388 7.98996C51.1688 4.90162 53.6622 4.90162 55.1922 7.98996Z" stroke="#007D9C" stroke-width="2.5" stroke-linecap="round" stroke-linejoin="round"/>
</svg>
