<svg width="16" height="16" viewBox="0 0 16 16" fill="none" xmlns="http://www.w3.org/2000/svg">
<path d="M12.7195 10.48C12.3262 8.12671 10.0662 6.21338 7.67953 6.21338C5.0862 6.21338 2.8062 8.31338 2.5862 10.9C2.49953 11.9 2.81953 12.8467 3.47953 13.56C4.13287 14.2734 5.05287 14.6667 6.05287 14.6667H9.17287C10.2995 14.6667 11.2862 14.2267 11.9595 13.4334C12.6329 12.64 12.8995 11.5867 12.7195 10.48Z" fill="#292D32"/>
<path d="M6.85372 5.24004C7.93252 5.24004 8.80706 4.3655 8.80706 3.28671C8.80706 2.20791 7.93252 1.33337 6.85372 1.33337C5.77493 1.33337 4.90039 2.20791 4.90039 3.28671C4.90039 4.3655 5.77493 5.24004 6.85372 5.24004Z" fill="#292D32"/>
<path d="M11.2937 6.02006C12.192 6.02006 12.9203 5.29177 12.9203 4.39339C12.9203 3.49501 12.192 2.76672 11.2937 2.76672C10.3953 2.76672 9.66699 3.49501 9.66699 4.39339C9.66699 5.29177 10.3953 6.02006 11.2937 6.02006Z" fill="#292D32"/>
<path d="M13.7004 8.62002C14.4184 8.62002 15.0004 8.03799 15.0004 7.32002C15.0004 6.60205 14.4184 6.02002 13.7004 6.02002C12.9824 6.02002 12.4004 6.60205 12.4004 7.32002C12.4004 8.03799 12.9824 8.62002 13.7004 8.62002Z" fill="#292D32"/>
<path d="M2.62667 7.31998C3.52505 7.31998 4.25333 6.5917 4.25333 5.69332C4.25333 4.79493 3.52505 4.06665 2.62667 4.06665C1.72828 4.06665 1 4.79493 1 5.69332C1 6.5917 1.72828 7.31998 2.62667 7.31998Z" fill="#292D32"/>
</svg>
