<svg width="71" height="71" viewBox="0 0 71 71" fill="none" xmlns="http://www.w3.org/2000/svg">
<path d="M48.5772 23.5187C55.7955 30.7371 55.7955 42.452 48.5772 49.6703C41.3589 56.8886 29.6438 56.8886 22.4255 49.6703C15.2071 42.452 15.2071 30.7371 22.4255 23.5187C29.6438 16.3004 41.3589 16.3004 48.5772 23.5187Z" stroke="#007D9C" stroke-width="2.5" stroke-linecap="round" stroke-linejoin="round"/>
<path d="M24.4068 64.0184C18.4902 61.6518 13.3131 57.3622 9.88142 51.4159C6.50892 45.588 5.38475 39.1092 6.1835 32.9263" stroke="#007D9C" stroke-width="2.5" stroke-linecap="round" stroke-linejoin="round"/>
<path d="M17.3086 13.2533C22.3378 9.31876 28.639 6.98169 35.5023 6.98169C42.2177 6.98169 48.4007 9.25957 53.3707 13.0462" stroke="#007D9C" stroke-width="2.5" stroke-linecap="round" stroke-linejoin="round"/>
<path d="M46.5938 64.0184C52.5104 61.6517 57.6875 57.3621 61.1192 51.4159C64.4917 45.5879 65.6158 39.1092 64.8171 32.9263" stroke="#007D9C" stroke-width="2.5" stroke-linecap="round" stroke-linejoin="round"/>
</svg>
