<svg width="76" height="70" viewBox="0 0 76 70" fill="none" xmlns="http://www.w3.org/2000/svg">
<rect width="75.6811" height="69.1001" rx="14.2588" fill="white"/>
<path d="M46.2042 21.2127V18.6461C46.2042 17.9716 45.6448 17.4122 44.9702 17.4122C44.2957 17.4122 43.7363 17.9716 43.7363 18.6461V21.114H33.0422V18.6461C33.0422 17.9716 32.4829 17.4122 31.8083 17.4122C31.1338 17.4122 30.5744 17.9716 30.5744 18.6461V21.2127C26.1322 21.624 23.977 24.2728 23.6479 28.2049C23.615 28.6821 24.0099 29.0769 24.4705 29.0769H52.308C52.7851 29.0769 53.18 28.6656 53.1306 28.2049C52.8016 24.2728 50.6463 21.624 46.2042 21.2127Z" fill="#003337"/>
<path opacity="0.4" d="M51.5514 31.5448C52.4563 31.5448 53.1966 32.2852 53.1966 33.19V43.3247C53.1966 48.2605 50.7288 51.5509 44.9704 51.5509H31.8085C26.0501 51.5509 23.5823 48.2605 23.5823 43.3247V33.19C23.5823 32.2852 24.3226 31.5448 25.2275 31.5448H51.5514Z" fill="#003337"/>
<path d="M32.6301 40.0342C32.2023 40.0342 31.7746 39.8532 31.462 39.557C31.1658 39.2444 30.9849 38.8167 30.9849 38.3889C30.9849 37.9611 31.1658 37.5334 31.462 37.2208C31.9227 36.7601 32.6466 36.612 33.2553 36.8753C33.4692 36.9575 33.6502 37.0727 33.7982 37.2208C34.0944 37.5334 34.2753 37.9611 34.2753 38.3889C34.2753 38.8167 34.0944 39.2444 33.7982 39.557C33.4856 39.8532 33.0579 40.0342 32.6301 40.0342Z" fill="#003337"/>
<path d="M38.3889 40.0342C37.9611 40.0342 37.5334 39.8532 37.2208 39.557C36.9246 39.2444 36.7437 38.8167 36.7437 38.3889C36.7437 37.9611 36.9246 37.5334 37.2208 37.2208C37.3688 37.0727 37.5498 36.9575 37.7637 36.8753C38.3724 36.612 39.0963 36.7601 39.557 37.2208C39.8532 37.5334 40.0341 37.9611 40.0341 38.3889C40.0341 38.8167 39.8532 39.2444 39.557 39.557C39.4748 39.6228 39.3925 39.6886 39.3102 39.7544C39.2115 39.8202 39.1128 39.8696 39.0141 39.9026C38.9154 39.9519 38.8167 39.9848 38.7179 40.0013C38.6028 40.0177 38.5041 40.0342 38.3889 40.0342Z" fill="#003337"/>
<path d="M44.1477 40.0343C43.7199 40.0343 43.2922 39.8533 42.9796 39.5571C42.6834 39.2445 42.5024 38.8168 42.5024 38.389C42.5024 37.9613 42.6834 37.5335 42.9796 37.2209C43.1441 37.0729 43.3086 36.9577 43.5225 36.8754C43.8186 36.7438 44.1477 36.7109 44.4767 36.7767C44.5754 36.7931 44.6742 36.826 44.7729 36.8754C44.8716 36.9083 44.9703 36.9577 45.069 37.0235C45.1513 37.0893 45.2335 37.1551 45.3158 37.2209C45.6119 37.5335 45.7929 37.9613 45.7929 38.389C45.7929 38.8168 45.6119 39.2445 45.3158 39.5571C45.2335 39.623 45.1513 39.6888 45.069 39.7546C44.9703 39.8204 44.8716 39.8698 44.7729 39.9027C44.6742 39.952 44.5754 39.9849 44.4767 40.0014C44.3616 40.0178 44.2464 40.0343 44.1477 40.0343Z" fill="#003337"/>
<path d="M32.6301 45.7926C32.4162 45.7926 32.2023 45.7432 32.0049 45.661C31.791 45.5787 31.6265 45.4635 31.462 45.3154C31.1658 45.0028 30.9849 44.5751 30.9849 44.1473C30.9849 43.7196 31.1658 43.2918 31.462 42.9792C31.6265 42.8312 31.791 42.716 32.0049 42.6337C32.3011 42.5021 32.6301 42.4692 32.9592 42.535C33.0579 42.5514 33.1566 42.5843 33.2553 42.6337C33.354 42.6666 33.4527 42.716 33.5514 42.7818C33.6337 42.8476 33.716 42.9134 33.7982 42.9792C34.0944 43.2918 34.2753 43.7196 34.2753 44.1473C34.2753 44.5751 34.0944 45.0028 33.7982 45.3154C33.716 45.3813 33.6337 45.4635 33.5514 45.5129C33.4527 45.5787 33.354 45.6281 33.2553 45.661C33.1566 45.7103 33.0579 45.7432 32.9592 45.7597C32.844 45.7761 32.7453 45.7926 32.6301 45.7926Z" fill="#003337"/>
<path d="M38.3889 45.7925C37.9611 45.7925 37.5334 45.6116 37.2208 45.3154C36.9246 45.0028 36.7437 44.5751 36.7437 44.1473C36.7437 43.7195 36.9246 43.2918 37.2208 42.9792C37.8295 42.3705 38.9483 42.3705 39.557 42.9792C39.8532 43.2918 40.0341 43.7195 40.0341 44.1473C40.0341 44.5751 39.8532 45.0028 39.557 45.3154C39.2444 45.6116 38.8167 45.7925 38.3889 45.7925Z" fill="#003337"/>
<path d="M44.1477 45.7925C43.7199 45.7925 43.2922 45.6115 42.9796 45.3154C42.6834 45.0028 42.5024 44.575 42.5024 44.1472C42.5024 43.7195 42.6834 43.2917 42.9796 42.9791C43.5883 42.3704 44.7071 42.3704 45.3158 42.9791C45.6119 43.2917 45.7929 43.7195 45.7929 44.1472C45.7929 44.575 45.6119 45.0028 45.3158 45.3154C45.0032 45.6115 44.5754 45.7925 44.1477 45.7925Z" fill="#003337"/>
</svg>
