<svg width="31" height="42" viewBox="0 0 31 42" fill="none" xmlns="http://www.w3.org/2000/svg">
<g clip-path="url(#clip0_446_22617)">
<g clip-path="url(#clip1_446_22617)">
<g clip-path="url(#clip2_446_22617)">
<path d="M2 17.5531C2 13.2581 5.48175 9.77637 9.7767 9.77637H21.4418C25.7367 9.77637 29.2185 13.2581 29.2185 17.5531V33.1065C29.2185 37.4014 25.7367 40.8832 21.4418 40.8832H9.7767C5.48175 40.8832 2 37.4014 2 33.1065V17.5531Z" stroke="#1A1E21" stroke-width="2.05908"/>
<path d="M2 5.88835C2 3.74087 3.74087 2 5.88835 2H25.3301C27.4776 2 29.2185 3.74087 29.2185 5.88835C29.2185 8.03583 27.4776 9.7767 25.3301 9.7767H5.88835C3.74087 9.7767 2 8.03583 2 5.88835Z" fill="#BAEC7B"/>
<path d="M21.4424 25.3305C21.4424 28.5517 18.831 31.163 15.6098 31.163C12.3886 31.163 9.77734 28.5517 9.77734 25.3305C9.77734 22.1093 12.3886 19.498 15.6098 19.498C18.831 19.498 21.4424 22.1093 21.4424 25.3305Z" fill="#BAEC7B"/>
<path d="M2 5.88835C2 3.74087 3.74087 2 5.88835 2H25.3301C27.4776 2 29.2185 3.74087 29.2185 5.88835C29.2185 8.03583 27.4776 9.7767 25.3301 9.7767H5.88835C3.74087 9.7767 2 8.03583 2 5.88835Z" stroke="#1A1E21" stroke-width="2.05908"/>
<path d="M21.4424 25.3305C21.4424 28.5517 18.831 31.163 15.6098 31.163C12.3886 31.163 9.77734 28.5517 9.77734 25.3305C9.77734 22.1093 12.3886 19.498 15.6098 19.498C18.831 19.498 21.4424 22.1093 21.4424 25.3305Z" stroke="#1A1E21" stroke-width="2.05908"/>
</g>
</g>
</g>
<defs>
<clipPath id="clip0_446_22617">
<rect width="31" height="42" fill="white"/>
</clipPath>
<clipPath id="clip1_446_22617">
<rect width="31" height="42" fill="white"/>
</clipPath>
<clipPath id="clip2_446_22617">
<rect width="31" height="42" fill="white"/>
</clipPath>
</defs>
</svg>
