<svg width="32" height="31" viewBox="0 0 32 31" fill="none" xmlns="http://www.w3.org/2000/svg">
    <path d="M31.8865 2.57747C31.8439 2.40681 31.8012 2.27881 31.7585 2.19347L31.6625 2.06547C31.6839 2.04414 31.6092 1.94814 31.4385 1.77747C31.2679 1.60681 31.1612 1.51081 31.1185 1.48947C30.9479 1.44681 30.7132 1.42547 30.4145 1.42547C30.2225 1.44681 30.0092 1.49481 29.7745 1.56947C29.5399 1.64414 29.3265 1.72414 29.1345 1.80947C28.7505 1.95881 28.3665 2.15081 27.9825 2.38547L27.4385 2.70547L26.9265 3.08947C26.3292 3.53747 25.7425 4.14547 25.1665 4.91347C24.7185 5.53214 24.2705 6.22547 23.8225 6.99347C23.7799 7.07881 23.7372 7.18547 23.6945 7.31347C21.6892 7.14281 19.8545 7.02547 18.1905 6.96147C17.4652 6.94014 16.3665 6.92947 14.8945 6.92947C13.8919 6.92947 12.8785 6.96147 11.8545 7.02547L11.8865 6.99347L12.0465 6.67347L12.1105 6.44947C12.1959 6.15081 12.2599 5.92681 12.3025 5.77747C12.3452 5.54281 12.3879 5.23347 12.4305 4.84947C12.5159 4.33747 12.5372 3.71881 12.4945 2.99347C12.4945 2.69481 12.4625 2.37481 12.3985 2.03347C12.3345 1.69214 12.2279 1.38281 12.0785 1.10547C12.0359 0.998806 11.9505 0.838806 11.8225 0.625473L11.7585 0.561474C11.6092 0.390806 11.4812 0.28414 11.3745 0.241472C11.1825 0.0921402 10.9852 0.0121403 10.7825 0.00147247C10.5799 -0.00919342 10.3399 0.0388069 10.0625 0.145473C9.84921 0.209473 9.64655 0.305473 9.45455 0.433474C9.26255 0.561474 9.16655 0.636139 9.16655 0.657473C9.08121 0.70014 9.03855 0.742807 9.03855 0.785473C8.97455 0.806807 8.88921 0.86014 8.78255 0.945473L8.68655 1.04147C8.43055 1.25481 8.06788 1.59614 7.59855 2.06547C7.38521 2.27881 7.07588 2.60947 6.67055 3.05747L6.57455 3.15347C5.87055 3.94281 5.23055 4.72147 4.65455 5.48947C4.52655 5.66014 4.33455 5.91614 4.07855 6.25747L3.72655 6.70547C3.66255 6.81214 3.55588 6.97214 3.40655 7.18547L3.31055 7.34547C3.20388 7.49481 3.06521 7.71881 2.89455 8.01747C1.76388 9.83081 0.963879 11.7508 0.494545 13.7775C0.259879 14.8655 0.110545 15.9001 0.0465455 16.8815C-0.0387879 17.7561 -0.00678787 18.8015 0.142545 20.0175C0.291879 21.1481 0.537212 22.1615 0.878546 23.0575C1.28388 24.0815 1.79588 24.9828 2.41455 25.7615C3.03321 26.5401 3.79055 27.2601 4.68655 27.9215C5.53988 28.5188 6.44655 29.0095 7.40655 29.3935C8.28121 29.7348 9.21988 30.0228 10.2225 30.2575C11.1825 30.4708 12.1425 30.5988 13.1025 30.6415C14.2332 30.7055 15.2892 30.6948 16.2705 30.6095C17.4012 30.5028 18.4465 30.3321 19.4065 30.0975C20.4732 29.8628 21.4652 29.5321 22.3825 29.1055C23.3852 28.6575 24.2865 28.1508 25.0865 27.5855C25.8865 27.0201 26.6492 26.2895 27.3745 25.3935C28.0145 24.6041 28.5265 23.7188 28.9105 22.7375C29.2519 21.9268 29.5292 20.9561 29.7425 19.8255C29.8279 19.3348 29.9345 18.5988 30.0625 17.6175L30.1585 16.8175C30.1799 16.4335 30.2332 15.9321 30.3185 15.3135C30.4039 14.6948 30.4785 14.1935 30.5425 13.8095C30.6065 13.5961 30.6705 13.2761 30.7345 12.8495L30.8305 12.3375L31.0545 10.8335C31.1399 10.2361 31.2679 9.34014 31.4385 8.14547L31.8545 4.81747L31.9505 3.69747C31.9719 3.61214 31.9825 3.48414 31.9825 3.31347C31.9825 3.07881 31.9505 2.83347 31.8865 2.57747ZM28.3985 18.6735C28.3985 18.7588 28.3719 18.8441 28.3185 18.9295C28.2652 19.0148 28.1745 19.1001 28.0465 19.1855C27.9185 19.2708 27.7265 19.3561 27.4705 19.4415L27.3425 19.4735C27.2145 19.5375 27.0865 19.5695 26.9585 19.5695C26.8092 19.6121 26.5959 19.6335 26.3185 19.6335C26.0625 19.6761 25.8652 19.7028 25.7265 19.7135C25.5879 19.7241 25.3692 19.7295 25.0705 19.7295L23.7905 19.5375L23.6945 19.5055C23.6305 19.5055 23.5772 19.4948 23.5345 19.4735C23.4492 19.4735 23.3425 19.4521 23.2145 19.4095C22.9159 19.3241 22.7025 19.2495 22.5745 19.1855C22.3185 19.1001 22.1265 18.9935 21.9985 18.8655C21.8705 18.7801 21.7959 18.6948 21.7745 18.6095C21.7105 18.4815 21.6999 18.3588 21.7425 18.2415C21.7852 18.1241 21.8705 18.0228 21.9985 17.9375C22.0625 17.8735 22.1585 17.7988 22.2865 17.7135L22.5425 17.5855C22.5639 17.5855 22.5852 17.5748 22.6065 17.5535L22.8305 17.4575C23.0012 17.4148 23.1292 17.3935 23.2145 17.3935C23.2999 17.3508 23.4492 17.2975 23.6625 17.2335L23.8225 17.2015C24.2279 17.1161 24.6865 17.0735 25.1985 17.0735C25.4972 17.0735 25.7212 17.0841 25.8705 17.1055H25.9985L26.0625 17.1375H26.1265L26.2225 17.1695C26.2652 17.1695 26.3505 17.1801 26.4785 17.2015L26.5425 17.2335C26.9692 17.3615 27.3532 17.5215 27.6945 17.7135C27.9079 17.8628 28.0572 17.9908 28.1425 18.0975L28.2065 18.1615C28.2492 18.2468 28.2812 18.3108 28.3025 18.3535L28.3345 18.5455C28.3772 18.5881 28.3985 18.6308 28.3985 18.6735ZM26.5425 22.2255C26.5425 22.2468 26.5425 22.2681 26.5425 22.2895C26.5212 22.2895 26.5105 22.2948 26.5105 22.3055C26.5105 22.3161 26.5105 22.3215 26.5105 22.3215H26.4785C26.4785 22.3428 26.4679 22.3535 26.4465 22.3535L25.9985 22.4495C25.9132 22.4495 25.7852 22.4708 25.6145 22.5135L25.1025 22.5455L24.6545 22.6415L24.3985 22.6735H24.1745L23.6945 22.7375C23.5239 22.7588 23.4065 22.7695 23.3425 22.7695L22.9265 22.8335L22.1905 22.8975C22.0412 22.8975 21.9345 22.9081 21.8705 22.9295L21.5825 22.9615C21.5185 22.9828 21.4332 22.9935 21.3265 22.9935C21.2199 22.9935 21.1452 23.0041 21.1025 23.0255C20.9319 23.0255 20.8252 23.0148 20.7825 22.9935H20.7505C20.7505 22.9935 20.7452 22.9935 20.7345 22.9935C20.7239 22.9935 20.7185 22.9828 20.7185 22.9615H20.6865L20.6545 22.9295H20.6865L20.7185 22.8975H20.6865C20.6865 22.8761 20.7825 22.8441 20.9745 22.8015L21.0385 22.7695C21.0385 22.7481 21.0599 22.7375 21.1025 22.7375L21.6785 22.5455C21.7425 22.5455 21.8385 22.5241 21.9665 22.4815L22.5745 22.3535C22.6385 22.3535 22.7559 22.3428 22.9265 22.3215L23.2465 22.2575H23.3745L23.8545 22.1935C23.9185 22.1721 24.0359 22.1615 24.2065 22.1615L24.5585 22.1295C24.6225 22.1081 24.7399 22.0975 24.9105 22.0975L25.3265 22.0335C25.4972 22.0335 25.6252 22.0228 25.7105 22.0015H26.5105L26.5745 22.0655C26.5532 22.0441 26.5532 22.0441 26.5745 22.0655V22.0975L26.5425 22.2255ZM15.2465 25.9695C15.0759 25.7348 14.9159 25.4575 14.7665 25.1375C14.6812 24.9241 14.6279 24.7641 14.6065 24.6575C14.5639 24.8708 14.5212 25.0201 14.4785 25.1055L14.4465 25.1695C14.3185 25.5108 14.2012 25.7561 14.0945 25.9055C13.9025 26.2041 13.6785 26.4281 13.4225 26.5775L13.3265 26.6415C13.1772 26.7268 13.0599 26.7801 12.9745 26.8015L12.7185 26.8975H12.6545L12.4945 26.9615C12.1319 27.0255 11.8119 27.0468 11.5345 27.0255C11.1719 27.0255 10.8519 26.9508 10.5745 26.8015C10.2972 26.6521 10.0732 26.4388 9.90255 26.1615C9.75321 25.9481 9.67855 25.7028 9.67855 25.4255C9.67855 25.3615 9.69988 25.3295 9.74255 25.3295L9.77455 25.3615C9.79588 25.3615 9.80655 25.3721 9.80655 25.3935L9.83855 25.4255C9.94521 25.7241 10.0839 25.9588 10.2545 26.1295C10.5105 26.3428 10.7559 26.4815 10.9905 26.5455C11.3105 26.6095 11.5985 26.6308 11.8545 26.6095L12.3025 26.5455L12.4945 26.4815C12.5372 26.4815 12.5799 26.4761 12.6225 26.4655C12.6652 26.4548 12.6972 26.4388 12.7185 26.4175C12.9745 26.3535 13.2092 26.2148 13.4225 26.0015C13.6145 25.8521 13.7852 25.6388 13.9345 25.3615C14.0625 25.1481 14.1585 24.9028 14.2225 24.6255C14.2652 24.4121 14.3079 24.1348 14.3505 23.7935C14.3932 23.3668 14.4145 23.0361 14.4145 22.8015L14.4785 21.7455C14.4785 21.5535 14.4892 21.4041 14.5105 21.2975V19.7615C14.5105 18.8655 14.5319 18.1935 14.5745 17.7455C14.6172 17.1908 14.6599 16.7641 14.7025 16.4655V16.4335L14.2865 15.6975C14.2012 15.5481 14.1319 15.4041 14.0785 15.2655C14.0252 15.1268 13.9772 14.9721 13.9345 14.8015C13.9132 14.6948 13.9025 14.5241 13.9025 14.2895C13.9025 14.2468 13.9239 14.1615 13.9665 14.0335L14.0945 13.7775C14.1372 13.7348 14.1799 13.6975 14.2225 13.6655C14.2652 13.6335 14.3185 13.6068 14.3825 13.5855C14.4465 13.5641 14.4999 13.5748 14.5425 13.6175C14.6279 13.6175 14.6812 13.6228 14.7025 13.6335C14.7239 13.6441 14.7665 13.6601 14.8305 13.6815L14.9265 13.7455C14.9265 13.7668 14.9372 13.7775 14.9585 13.7775L14.9905 13.8095C15.0759 13.8735 15.1345 13.9535 15.1665 14.0495C15.1985 14.1455 15.2145 14.2041 15.2145 14.2255L15.2785 14.0335C15.2785 14.0121 15.2892 13.9695 15.3105 13.9055L15.4065 13.7775H15.4385L15.5025 13.7135C15.5239 13.7135 15.5345 13.7028 15.5345 13.6815L15.6625 13.6175C15.7265 13.5961 15.8225 13.5855 15.9505 13.5855L16.1745 13.6175C16.2812 13.6388 16.3665 13.6868 16.4305 13.7615C16.4945 13.8361 16.5372 13.9001 16.5585 13.9535C16.5799 14.0068 16.5905 14.0868 16.5905 14.1935V14.3855C16.5905 14.4708 16.5692 14.5988 16.5265 14.7695L16.2705 15.4415C16.2492 15.5268 16.1105 15.7615 15.8545 16.1455C15.5985 16.5295 15.3852 16.8175 15.2145 17.0095C15.2145 17.5001 15.2039 17.8628 15.1825 18.0975V18.1935C15.1399 19.0681 15.0972 19.7188 15.0545 20.1455L14.9585 21.2655L14.8945 22.7695C14.8732 23.0895 14.8732 23.3348 14.8945 23.5055C14.8945 23.8895 14.9372 24.2415 15.0225 24.5615L15.0545 24.6255C15.1185 24.9241 15.1932 25.1375 15.2785 25.2655C15.4279 25.5428 15.5985 25.7455 15.7905 25.8735C15.8759 25.9588 15.9825 26.0335 16.1105 26.0975L16.3025 26.1615C16.3239 26.1828 16.3559 26.1935 16.3985 26.1935L16.4945 26.2575C16.6652 26.3001 16.9425 26.3321 17.3265 26.3535C17.7105 26.3748 17.9879 26.3748 18.1585 26.3535C18.4572 26.2681 18.6972 26.1775 18.8785 26.0815C19.0599 25.9855 19.2359 25.8361 19.4065 25.6335C19.5772 25.4308 19.7052 25.2335 19.7905 25.0415C19.8119 24.9988 19.8385 24.9828 19.8705 24.9935C19.9025 25.0041 19.9185 25.0201 19.9185 25.0415V25.1375C19.8332 25.4788 19.7052 25.7561 19.5345 25.9695C19.3639 26.2255 19.1185 26.4281 18.7985 26.5775C18.5425 26.6841 18.2332 26.7588 17.8705 26.8015C17.4652 26.8015 17.1559 26.7908 16.9425 26.7695L16.4625 26.6735C16.3772 26.6521 16.2599 26.6095 16.1105 26.5455L16.0145 26.5135C15.8012 26.4281 15.5452 26.2468 15.2465 25.9695ZM3.95055 24.0175C3.88655 24.0175 3.83321 24.0068 3.79055 23.9855H3.72655L3.69455 23.9535V23.9215L3.66255 23.8895V23.6975H3.69455V23.6655H3.72655C3.74788 23.6441 3.77455 23.6281 3.80655 23.6175C3.83855 23.6068 3.88655 23.6015 3.95055 23.6015L4.49455 23.5055H4.78255C4.91055 23.5055 4.99588 23.4948 5.03855 23.4735H5.29455L5.51855 23.4415H6.41455L6.60655 23.4735H6.86255L7.08655 23.5055C7.17188 23.5055 7.24655 23.5161 7.31055 23.5375L7.50255 23.5695L7.56655 23.6015C7.73721 23.6015 7.82255 23.6121 7.82255 23.6335C7.82255 23.6548 7.82255 23.6655 7.82255 23.6655L7.75855 23.6975H7.79055H7.82255V23.7295L7.79055 23.7615C7.76921 23.7615 7.75855 23.7721 7.75855 23.7935L7.56655 23.8575H7.40655L7.21455 23.8895H6.79855L6.54255 23.9215H6.28655L5.99855 23.9535L5.67855 23.9215L5.23055 23.9855H5.07055L4.75055 23.9535L4.43055 23.9855H4.11055L3.95055 24.0175ZM2.41455 18.9295C2.41455 18.9081 2.41455 18.8975 2.41455 18.8975V18.8655C2.41455 18.8015 2.42521 18.7588 2.44655 18.7375C2.48921 18.6095 2.53188 18.5241 2.57455 18.4815C2.65988 18.3961 2.80921 18.2681 3.02255 18.0975C3.34255 17.9268 3.73721 17.7668 4.20655 17.6175L4.52655 17.5535L4.59055 17.5215H4.68655L4.71855 17.4895H4.84655C5.01721 17.4681 5.25188 17.4575 5.55055 17.4575C6.06255 17.4575 6.52121 17.5001 6.92655 17.5855L7.15055 17.6495C7.32121 17.6921 7.45455 17.7241 7.55055 17.7455C7.64655 17.7668 7.75855 17.7988 7.88655 17.8415L8.11055 17.9375C8.13188 17.9588 8.16388 17.9695 8.20655 17.9695L8.43055 18.0975C8.55855 18.1828 8.65455 18.2575 8.71855 18.3215C8.82521 18.3855 8.90521 18.4868 8.95855 18.6255C9.01188 18.7641 9.01721 18.8761 8.97455 18.9615C8.93188 19.0468 8.85721 19.1428 8.75055 19.2495C8.57988 19.3988 8.38788 19.5055 8.17455 19.5695C8.06788 19.6121 7.90788 19.6761 7.69455 19.7615L7.47055 19.8255C7.34255 19.8468 7.24655 19.8575 7.18255 19.8575C7.16121 19.8788 7.10788 19.8895 7.02255 19.8895L5.99855 20.0815C5.84921 20.0815 5.73188 20.0921 5.64655 20.1135C5.34788 20.1135 5.13455 20.1081 5.00655 20.0975C4.87855 20.0868 4.70788 20.0601 4.49455 20.0175H4.43055C4.28121 20.0175 4.05721 19.9961 3.75855 19.9535C3.69455 19.9535 3.60921 19.9321 3.50255 19.8895L3.24655 19.8255C2.99055 19.7401 2.80388 19.6548 2.68655 19.5695C2.56921 19.4841 2.48388 19.3988 2.43055 19.3135C2.37721 19.2281 2.35055 19.1428 2.35055 19.0575C2.39321 19.0148 2.41455 18.9721 2.41455 18.9295ZM6.70255 9.84147C7.12921 9.45747 7.61455 9.14814 8.15855 8.91347C8.70255 8.67881 9.27855 8.52947 9.88655 8.46547C10.4945 8.40147 11.0759 8.44414 11.6305 8.59347C11.8865 8.65747 12.1745 8.76414 12.4945 8.91347C12.8145 9.06281 13.0492 9.20147 13.1985 9.32947C13.4332 9.54281 13.6145 9.76147 13.7425 9.98547C13.8705 10.2095 13.9559 10.4921 13.9985 10.8335C14.0412 11.1321 14.0412 11.4095 13.9985 11.6655L13.9025 12.1135C13.8172 12.5828 13.7639 12.8281 13.7425 12.8495C13.7212 13.0415 13.6465 13.3081 13.5185 13.6495C13.3905 13.8841 13.2412 14.1295 13.0705 14.3855C12.7719 14.7695 12.3345 15.1321 11.7585 15.4735C11.2679 15.7508 10.7239 15.9535 10.1265 16.0815C9.65721 16.1881 9.21988 16.2415 8.81455 16.2415C9.17721 16.2415 9.57188 16.1881 9.99855 16.0815C10.5959 15.9535 11.1185 15.7508 11.5665 15.4735C12.0785 15.1961 12.5052 14.8441 12.8465 14.4175C12.9532 14.3108 13.0812 14.1188 13.2305 13.8415L13.2945 13.7455C13.3372 13.6175 13.4172 13.2975 13.5345 12.7855C13.6519 12.2735 13.7212 11.9428 13.7425 11.7935C13.8065 11.5588 13.8172 11.2815 13.7745 10.9615C13.7532 10.7055 13.6679 10.4388 13.5185 10.1615C13.4759 10.0761 13.3799 9.94814 13.2305 9.77747L12.9745 9.48947C12.9319 9.44681 12.8572 9.39347 12.7505 9.32947L12.6225 9.23347C12.5585 9.19081 12.4412 9.12681 12.2705 9.04147L11.4385 8.75347C10.8839 8.62547 10.3185 8.59347 9.74255 8.65747C9.20921 8.72147 8.66521 8.87081 8.11055 9.10547C7.55588 9.34014 7.05988 9.64414 6.62255 10.0175C6.18521 10.3908 5.83855 10.8121 5.58255 11.2815C5.30521 11.7935 5.16655 12.3161 5.16655 12.8495V12.7535C5.16655 12.1988 5.31588 11.6548 5.61455 11.1215C5.84921 10.6948 6.21188 10.2681 6.70255 9.84147ZM9.83855 6.73747C9.88121 6.63081 9.91321 6.53481 9.93455 6.44947V6.54547L9.83855 6.70547V6.73747ZM12.4625 24.9775C12.4625 24.9561 12.4679 24.9241 12.4785 24.8815C12.4892 24.8388 12.5052 24.8068 12.5265 24.7855L12.5905 24.6895C12.6332 24.6468 12.6705 24.6255 12.7025 24.6255C12.7345 24.6255 12.7719 24.6468 12.8145 24.6895C12.8145 24.6895 12.8199 24.6895 12.8305 24.6895C12.8412 24.6895 12.8679 24.7108 12.9105 24.7535L12.9745 24.8495C13.0172 24.9135 13.0385 25.0095 13.0385 25.1375C13.0385 25.2655 13.0119 25.3668 12.9585 25.4415C12.9052 25.5161 12.8359 25.5535 12.7505 25.5535C12.7505 25.5535 12.7399 25.5535 12.7185 25.5535C12.6972 25.5535 12.6812 25.5481 12.6705 25.5375C12.6599 25.5268 12.6492 25.5161 12.6385 25.5055C12.6279 25.4948 12.6225 25.4895 12.6225 25.4895L12.5905 25.4575C12.5905 25.4361 12.5799 25.4255 12.5585 25.4255L12.5265 25.3295C12.5052 25.2868 12.4945 25.2335 12.4945 25.1695V25.1055C12.4732 25.0628 12.4625 25.0201 12.4625 24.9775ZM13.0065 23.7615C12.9852 23.7188 12.9745 23.6655 12.9745 23.6015V23.4095L13.0385 23.2175L13.1025 23.1215C13.1239 23.1001 13.1612 23.0895 13.2145 23.0895C13.2679 23.0895 13.2999 23.0948 13.3105 23.1055C13.3212 23.1161 13.3265 23.1215 13.3265 23.1215L13.4225 23.1855L13.4865 23.3135C13.5292 23.3561 13.5505 23.4468 13.5505 23.5855C13.5505 23.7241 13.5292 23.8255 13.4865 23.8895C13.4439 23.9535 13.3692 23.9855 13.2625 23.9855H13.1985C13.1772 23.9641 13.1612 23.9535 13.1505 23.9535C13.1399 23.9535 13.1345 23.9535 13.1345 23.9535V23.9215C13.1132 23.9215 13.1025 23.9108 13.1025 23.8895L13.0065 23.7615ZM11.6305 23.4095C11.6305 23.3668 11.6519 23.3028 11.6945 23.2175C11.6945 23.1961 11.7105 23.1695 11.7425 23.1375C11.7745 23.1055 11.8172 23.0895 11.8705 23.0895C11.9239 23.0895 11.9559 23.0948 11.9665 23.1055C11.9772 23.1161 11.9825 23.1215 11.9825 23.1215L12.0145 23.1535C12.0359 23.1535 12.0465 23.1641 12.0465 23.1855C12.0892 23.2281 12.1212 23.2708 12.1425 23.3135C12.1852 23.3988 12.2012 23.5001 12.1905 23.6175C12.1799 23.7348 12.1479 23.8255 12.0945 23.8895C12.0412 23.9535 11.9825 23.9855 11.9185 23.9855H11.8225C11.8225 23.9641 11.8225 23.9535 11.8225 23.9535H11.7905L11.7265 23.8575C11.7052 23.8575 11.6945 23.8468 11.6945 23.8255L11.6625 23.7935C11.6412 23.7508 11.6305 23.6868 11.6305 23.6015V23.4095ZM10.9585 24.9775C10.9585 24.9561 10.9639 24.9241 10.9745 24.8815C10.9852 24.8388 11.0012 24.8068 11.0225 24.7855L11.0865 24.6895C11.1292 24.6468 11.1665 24.6255 11.1985 24.6255C11.2305 24.6255 11.2679 24.6468 11.3105 24.6895C11.3105 24.6895 11.3159 24.6895 11.3265 24.6895C11.3372 24.6895 11.3639 24.7108 11.4065 24.7535L11.4705 24.8495C11.5132 24.9135 11.5345 25.0095 11.5345 25.1375C11.5345 25.2655 11.5079 25.3668 11.4545 25.4415C11.4012 25.5161 11.3319 25.5535 11.2465 25.5535C11.2465 25.5535 11.2359 25.5535 11.2145 25.5535C11.1932 25.5535 11.1772 25.5481 11.1665 25.5375C11.1559 25.5268 11.1452 25.5161 11.1345 25.5055C11.1239 25.4948 11.1185 25.4895 11.1185 25.4895L11.0865 25.4575C11.0865 25.4361 11.0759 25.4255 11.0545 25.4255L11.0225 25.3295C11.0012 25.2868 10.9905 25.2335 10.9905 25.1695V25.1055C10.9692 25.0628 10.9585 25.0201 10.9585 24.9775ZM10.2545 23.4095C10.2545 23.3668 10.2759 23.3028 10.3185 23.2175C10.3185 23.1961 10.3345 23.1695 10.3665 23.1375C10.3985 23.1055 10.4412 23.0895 10.4945 23.0895C10.5479 23.0895 10.5799 23.0948 10.5905 23.1055C10.6012 23.1161 10.6065 23.1215 10.6065 23.1215L10.6385 23.1535C10.6599 23.1535 10.6705 23.1641 10.6705 23.1855C10.7132 23.2281 10.7452 23.2708 10.7665 23.3135C10.8092 23.3988 10.8252 23.5001 10.8145 23.6175C10.8039 23.7348 10.7719 23.8255 10.7185 23.8895C10.6652 23.9535 10.6065 23.9855 10.5425 23.9855H10.4465C10.4465 23.9641 10.4465 23.9535 10.4465 23.9535H10.4145L10.3505 23.8575C10.3292 23.8575 10.3185 23.8468 10.3185 23.8255L10.2865 23.7935C10.2652 23.7508 10.2545 23.6868 10.2545 23.6015V23.4095ZM12.0145 9.26547C12.1852 9.35081 12.3025 9.41481 12.3665 9.45747C12.6225 9.60681 12.8252 9.75614 12.9745 9.90547L13.0065 9.93747L12.8465 9.77747L12.7185 9.71347C12.5905 9.60681 12.4945 9.53747 12.4305 9.50547C12.3665 9.47347 12.3025 9.45747 12.2385 9.45747C12.1105 9.35081 11.8972 9.23347 11.5985 9.10547L11.7265 9.16947C11.8545 9.19081 11.9505 9.22281 12.0145 9.26547ZM6.12655 11.5055C6.36121 11.1215 6.63855 10.7801 6.95855 10.4815C7.23588 10.2255 7.59855 9.96947 8.04655 9.71347C8.47321 9.52147 8.89988 9.36147 9.32655 9.23347C9.71055 9.14814 10.0199 9.10547 10.2545 9.10547H10.7665L11.1505 9.16947L11.5025 9.26547L11.3745 9.23347H11.1825H11.0545C10.9265 9.21214 10.8305 9.21214 10.7665 9.23347H10.6705C10.4999 9.23347 10.2332 9.26547 9.87055 9.32947L9.77455 9.36147C9.41188 9.46814 9.09188 9.60681 8.81455 9.77747C8.49455 9.99081 8.22788 10.2361 8.01455 10.5135L7.79055 10.8975C7.66255 11.1321 7.58788 11.3348 7.56655 11.5055C7.45988 11.8895 7.43855 12.2628 7.50255 12.6255C7.52388 12.7535 7.57721 12.9455 7.66255 13.2015L7.72655 13.2975C7.83321 13.4895 7.91855 13.6175 7.98255 13.6815C8.21721 13.9588 8.53721 14.1935 8.94255 14.3855C9.26255 14.5135 9.64655 14.5988 10.0945 14.6415C10.4359 14.6628 10.8305 14.6201 11.2785 14.5135L11.3425 14.4815C11.5132 14.4388 11.6732 14.3748 11.8225 14.2895L12.0785 14.1615C12.1212 14.1401 12.1639 14.1081 12.2065 14.0655L12.3025 14.0015H12.3345V13.9695C12.3772 13.9268 12.4199 13.9055 12.4625 13.9055L12.2705 14.0975C12.1639 14.2255 11.9825 14.3961 11.7265 14.6095C11.3639 14.9295 10.9905 15.1641 10.6065 15.3135L9.99855 15.5055L9.77455 15.5375C9.66788 15.5588 9.51855 15.5695 9.32655 15.5695C8.81455 15.6121 8.36655 15.5908 7.98255 15.5055C7.55588 15.3988 7.16121 15.2175 6.79855 14.9615C6.60655 14.8121 6.45721 14.6521 6.35055 14.4815C6.26521 14.3748 6.15855 14.1935 6.03055 13.9375C5.81721 13.5321 5.73188 13.1161 5.77455 12.6895C5.77455 12.5401 5.78521 12.4228 5.80655 12.3375C5.87055 12.0815 5.97721 11.8041 6.12655 11.5055ZM11.3105 10.9935C11.3105 11.2068 11.3105 11.4201 11.3105 11.6335V11.6655C11.3105 11.8148 11.2999 11.9215 11.2785 11.9855C11.2785 12.1775 11.2572 12.4441 11.2145 12.7855L11.1825 13.0735L11.0545 13.6815V13.7135L11.0225 13.7455V13.8095L10.9585 13.9375C10.9372 14.0228 10.9052 14.0868 10.8625 14.1295C10.8199 14.1721 10.7985 14.2041 10.7985 14.2255C10.7132 14.2681 10.6599 14.2788 10.6385 14.2575C10.5745 14.2575 10.5052 14.1828 10.4305 14.0335C10.3559 13.8841 10.2865 13.6708 10.2225 13.3935V13.3295C10.1799 13.1588 10.1532 13.0201 10.1425 12.9135C10.1319 12.8068 10.1265 12.6361 10.1265 12.4015C10.1052 12.2521 10.1052 12.0175 10.1265 11.6975V11.3775L10.2225 10.4495L10.2865 10.1935C10.3292 10.0015 10.3612 9.86281 10.3825 9.77747C10.4465 9.58547 10.5105 9.45747 10.5745 9.39347L10.6705 9.29747C10.6919 9.27614 10.7239 9.26547 10.7665 9.26547H10.8945C10.8945 9.28681 10.9052 9.29747 10.9265 9.29747L10.9585 9.32947C11.0225 9.39347 11.0705 9.46281 11.1025 9.53747C11.1345 9.61214 11.1505 9.69214 11.1505 9.77747C11.1932 9.90547 11.2145 10.0228 11.2145 10.1295C11.2785 10.3428 11.3105 10.6308 11.3105 10.9935ZM8.46255 10.3535C8.63321 10.1828 8.88921 10.0015 9.23055 9.80947C9.27321 9.76681 9.31588 9.74547 9.35855 9.74547L9.51855 9.68147C9.60388 9.63881 9.66788 9.60681 9.71055 9.58547C9.71055 9.60681 9.71055 9.61747 9.71055 9.61747H9.67855C9.23055 9.85214 8.86788 10.1401 8.59055 10.4815L8.33455 10.8335C8.16388 11.1535 8.05188 11.4521 7.99855 11.7295C7.94521 12.0068 7.92921 12.2308 7.95055 12.4015C7.99321 12.6575 8.06788 12.8708 8.17455 13.0415C8.28121 13.2761 8.41988 13.4681 8.59055 13.6175C8.69721 13.7241 8.87855 13.8628 9.13455 14.0335C9.19855 14.0761 9.27321 14.1188 9.35855 14.1615C9.52921 14.2468 9.78521 14.3321 10.1265 14.4175L9.83855 14.3855C9.49721 14.3215 9.16655 14.1988 8.84655 14.0175C8.52655 13.8361 8.25988 13.5908 8.04655 13.2815C7.83321 12.9721 7.72655 12.6468 7.72655 12.3055C7.72655 12.0708 7.73721 11.9001 7.75855 11.7935C7.80121 11.5801 7.84388 11.4095 7.88655 11.2815L8.07855 10.8975C8.16388 10.7481 8.29188 10.5668 8.46255 10.3535ZM5.51855 12.4335C5.53988 12.4121 5.55055 12.3695 5.55055 12.3055L5.58255 12.2095C5.56121 12.2521 5.55055 12.3161 5.55055 12.4015L5.51855 12.5295V13.1055C5.53988 13.2761 5.59321 13.5108 5.67855 13.8095C5.78521 14.0441 5.89188 14.2468 5.99855 14.4175V14.4495L6.06255 14.5135C6.06255 14.5348 6.07321 14.5455 6.09455 14.5455L6.19055 14.7055L6.44655 14.9615C6.57455 15.1108 6.76655 15.2601 7.02255 15.4095C7.40655 15.6228 7.86521 15.7615 8.39855 15.8255C8.76121 15.8681 9.12388 15.8681 9.48655 15.8255C9.55055 15.8041 9.64655 15.7935 9.77455 15.7935L10.1265 15.7295L10.4465 15.6335C10.6385 15.5695 10.8519 15.4841 11.0865 15.3775C11.4065 15.2281 11.7692 14.9721 12.1745 14.6095C12.4732 14.3535 12.7399 14.0335 12.9745 13.6495C13.0599 13.5641 13.1132 13.4788 13.1345 13.3935L13.1025 13.4895C13.0172 13.6815 12.9532 13.8095 12.9105 13.8735C12.6332 14.2788 12.3132 14.6201 11.9505 14.8975C11.5879 15.1748 11.1612 15.3988 10.6705 15.5695L10.2545 15.6975C9.93455 15.7828 9.59321 15.8468 9.23055 15.8895C8.71855 15.9321 8.23855 15.9001 7.79055 15.7935C7.25721 15.6441 6.83055 15.4308 6.51055 15.1535C6.19055 14.8761 5.92388 14.5028 5.71055 14.0335C5.71055 14.0121 5.69988 13.9695 5.67855 13.9055L5.64655 13.8735C5.64655 13.8308 5.63588 13.7988 5.61455 13.7775L5.58255 13.7455C5.53988 13.5748 5.51855 13.4468 5.51855 13.3615C5.47588 13.0628 5.46521 12.8175 5.48655 12.6255C5.50788 12.5828 5.51855 12.5188 5.51855 12.4335ZM3.15055 22.0655C3.12921 22.0441 3.09721 22.0335 3.05455 22.0335L2.89455 22.0015C2.87321 22.0015 2.86255 21.9908 2.86255 21.9695H2.83055C2.83055 21.9695 2.83055 21.9641 2.83055 21.9535C2.83055 21.9428 2.83055 21.9375 2.83055 21.9375H2.79855V21.8415C2.77721 21.8415 2.77721 21.8308 2.79855 21.8095V21.7455C2.81988 21.7241 2.81988 21.7241 2.79855 21.7455C2.81988 21.7455 2.83055 21.7348 2.83055 21.7135L3.02255 21.6815H3.24655C3.41721 21.6815 3.55588 21.6921 3.66255 21.7135C3.83321 21.7135 3.96121 21.7241 4.04655 21.7455L4.46255 21.7775C4.54788 21.7988 4.66521 21.8095 4.81455 21.8095L5.16655 21.8415C5.25188 21.8628 5.36921 21.8735 5.51855 21.8735L5.83855 21.9375H5.99855L6.12655 21.9695L7.05455 22.0975L7.40655 22.1935C7.47055 22.1935 7.56655 22.2148 7.69455 22.2575C7.77988 22.2575 7.88655 22.2788 8.01455 22.3215L8.27055 22.4175C8.29188 22.4388 8.31321 22.4495 8.33455 22.4495L8.39855 22.4815C8.59055 22.5241 8.68655 22.5561 8.68655 22.5775H8.65455H8.55855L8.65455 22.6095H8.68655H8.71855V22.6415H8.68655C8.68655 22.6628 8.67588 22.6735 8.65455 22.6735H8.62255V22.7055H8.04655L7.79055 22.6735L7.50255 22.6095C7.35321 22.6095 7.24655 22.5988 7.18255 22.5775C7.01188 22.5775 6.89455 22.5668 6.83055 22.5455L6.03055 22.4815C5.85988 22.4388 5.72655 22.4121 5.63055 22.4015C5.53455 22.3908 5.39055 22.3855 5.19855 22.3855L4.97455 22.3535C4.86788 22.3535 4.78255 22.3428 4.71855 22.3215H4.65455C4.48388 22.2788 4.35588 22.2575 4.27055 22.2575L3.82255 22.1935C3.73721 22.1935 3.60921 22.1721 3.43855 22.1295L3.15055 22.0655ZM6.60655 25.3295C6.58521 25.3295 6.55321 25.3401 6.51055 25.3615L6.38255 25.3935C6.27588 25.3935 6.19588 25.3988 6.14255 25.4095C6.08921 25.4201 6.01988 25.4468 5.93455 25.4895L5.80655 25.5215H5.67855C5.63588 25.5428 5.55055 25.5535 5.42255 25.5535C5.33721 25.5961 5.26255 25.6175 5.19855 25.6175L4.97455 25.6815L4.71855 25.7135H4.68655C4.66521 25.7135 4.65455 25.7028 4.65455 25.6815L4.55855 25.5535H4.52655V25.4575V25.4255L4.87855 25.2655L5.29455 25.1695L5.48655 25.1055L5.67855 25.0735L5.83855 25.0095C5.92388 25.0095 5.98788 24.9988 6.03055 24.9775H6.09455L6.19055 24.9455L6.44655 24.8815H6.70255L6.89455 24.8495H7.24655C7.33188 24.8495 7.38521 24.8601 7.40655 24.8815H7.47055C7.59855 24.8815 7.66788 24.8868 7.67855 24.8975C7.68921 24.9081 7.69455 24.9135 7.69455 24.9135L7.63055 24.9455H7.69455V24.9775V25.0095L7.66255 25.0415L7.47055 25.1375L7.27855 25.2015C7.21455 25.2015 7.16121 25.2121 7.11855 25.2335L6.76655 25.3295C6.74521 25.3081 6.71321 25.3081 6.67055 25.3295H6.60655ZM19.8225 10.4175C19.8439 10.3961 19.8865 10.3641 19.9505 10.3215C20.1212 10.1721 20.2492 10.0761 20.3345 10.0335C20.4625 9.94814 20.5532 9.88947 20.6065 9.85747C20.6599 9.82547 20.7505 9.79881 20.8785 9.77747L20.9425 9.74547H20.9105C20.5265 9.93747 20.2065 10.1935 19.9505 10.5135L19.7585 10.8015C19.5879 11.0361 19.4705 11.3028 19.4065 11.6015C19.3852 11.7295 19.3745 11.9321 19.3745 12.2095C19.3959 12.4228 19.4652 12.6308 19.5825 12.8335C19.6999 13.0361 19.8119 13.1908 19.9185 13.2975L20.0465 13.4255C20.1959 13.5535 20.3239 13.6388 20.4305 13.6815C20.7292 13.8735 21.0172 13.9801 21.2945 14.0015C21.1879 14.0015 21.1132 13.9908 21.0705 13.9695C20.7292 13.9268 20.4145 13.8201 20.1265 13.6495C19.8385 13.4788 19.6199 13.2761 19.4705 13.0415C19.2785 12.7428 19.1825 12.4441 19.1825 12.1455C19.1825 11.9321 19.1932 11.7828 19.2145 11.6975C19.2572 11.4841 19.2999 11.3348 19.3425 11.2495C19.4065 11.0788 19.4812 10.9401 19.5665 10.8335C19.5879 10.7055 19.6732 10.5668 19.8225 10.4175ZM22.3505 11.5375C22.3505 11.5588 22.3505 11.5801 22.3505 11.6015C22.3505 11.7295 22.3399 11.8148 22.3185 11.8575C22.3185 12.2415 22.2865 12.5615 22.2225 12.8175L22.1265 13.3935L22.0945 13.4255V13.4895L21.9345 13.7775C21.8492 13.8628 21.7799 13.9001 21.7265 13.8895C21.6732 13.8788 21.6092 13.7988 21.5345 13.6495C21.4599 13.5001 21.4119 13.3081 21.3905 13.0735L21.3585 12.6575C21.3372 12.5721 21.3265 12.4228 21.3265 12.2095C21.3052 12.0601 21.3052 11.8468 21.3265 11.5695V11.2815L21.4225 10.4495C21.4652 10.1508 21.5079 9.94814 21.5505 9.84147L21.7105 9.52147L21.8385 9.39347H21.9985C21.9985 9.41481 22.0092 9.42547 22.0305 9.42547L22.0625 9.45747C22.0839 9.47881 22.1159 9.53214 22.1585 9.61747L22.2545 9.84147C22.2545 9.88414 22.2652 9.96947 22.2865 10.0975L22.3185 10.1615C22.3612 10.4601 22.3825 10.7161 22.3825 10.9295C22.3612 11.0788 22.3505 11.2815 22.3505 11.5375ZM17.7425 11.4095C17.9559 11.0681 18.2065 10.7695 18.4945 10.5135C18.7825 10.2575 19.1079 10.0441 19.4705 9.87347C19.7692 9.70281 20.1425 9.56414 20.5905 9.45747L20.7825 9.39347C21.1452 9.32947 21.4759 9.30814 21.7745 9.32947H21.8705C22.0412 9.32947 22.2225 9.36147 22.4145 9.42547H22.4785H22.0945C22.0092 9.40414 21.9345 9.40414 21.8705 9.42547H21.8065C21.5079 9.42547 21.2305 9.46814 20.9745 9.55347L20.7825 9.61747C20.6545 9.63881 20.5692 9.67081 20.5265 9.71347L20.1425 9.90547C19.8865 10.0548 19.6519 10.2681 19.4385 10.5455L19.2465 10.8335C19.1185 11.0895 19.0439 11.2921 19.0225 11.4415C18.9159 11.7828 18.8945 12.1135 18.9585 12.4335C18.9799 12.5401 19.0439 12.7001 19.1505 12.9135C19.2572 13.1268 19.3425 13.2761 19.4065 13.3615C19.7052 13.6601 19.9932 13.8628 20.2705 13.9695C20.6545 14.1188 20.9959 14.1935 21.2945 14.1935C21.6785 14.2361 22.0305 14.1935 22.3505 14.0655C22.3932 14.0655 22.4252 14.0548 22.4465 14.0335L22.8305 13.9055L23.0545 13.7775C23.0972 13.7348 23.1292 13.7135 23.1505 13.7135L23.2465 13.6495H23.2785C23.2785 13.6281 23.2892 13.6175 23.3105 13.6175C23.2252 13.7028 23.1612 13.7775 23.1185 13.8415C22.9479 14.0121 22.8199 14.1295 22.7345 14.1935C22.3505 14.4921 22.0199 14.6948 21.7425 14.8015L21.4545 14.8975C21.3265 14.9401 21.2305 14.9615 21.1665 14.9615C21.1452 14.9828 21.1025 14.9935 21.0385 14.9935L20.5905 15.0575C20.2279 15.0788 19.8332 15.0468 19.4065 14.9615C18.9799 14.8761 18.6279 14.7268 18.3505 14.5135C18.2012 14.3855 18.0625 14.2468 17.9345 14.0975C17.8065 13.8841 17.7105 13.7135 17.6465 13.5855C17.4759 13.2228 17.4012 12.8601 17.4225 12.4975C17.4225 12.3268 17.4332 12.2095 17.4545 12.1455C17.5185 11.9321 17.6145 11.6868 17.7425 11.4095ZM23.7265 13.5535C23.4705 13.9161 23.1825 14.2148 22.8625 14.4495L22.5425 14.6735L22.7345 14.5135C22.9052 14.3855 23.0225 14.2895 23.0865 14.2255C23.4065 13.9481 23.6519 13.6601 23.8225 13.3615L23.8545 13.2975C23.8332 13.3828 23.7905 13.4681 23.7265 13.5535ZM23.6945 9.90547C23.6092 9.84147 23.4812 9.76681 23.3105 9.68147L23.1825 9.61747C23.0545 9.53214 22.9479 9.46814 22.8625 9.42547C22.8839 9.44681 22.9159 9.45747 22.9585 9.45747L23.2785 9.61747C23.3852 9.68147 23.5239 9.77747 23.6945 9.90547ZM17.5825 14.0335L17.6145 14.0655V14.0975L17.6785 14.1615C17.6999 14.2041 17.7319 14.2521 17.7745 14.3055C17.8172 14.3588 17.8919 14.4388 17.9985 14.5455L18.1265 14.6415C18.2972 14.7908 18.4252 14.8868 18.5105 14.9295C18.8945 15.1428 19.2785 15.2601 19.6625 15.2815C19.7052 15.2815 19.7372 15.2921 19.7585 15.3135C20.1212 15.3561 20.4519 15.3455 20.7505 15.2815H20.9425H20.8465C20.7825 15.3028 20.6972 15.3135 20.5905 15.3135C20.5479 15.3135 20.5159 15.3241 20.4945 15.3455C20.0679 15.3881 19.6412 15.3561 19.2145 15.2495C18.7452 15.1428 18.3772 14.9668 18.1105 14.7215C17.8439 14.4761 17.6145 14.1508 17.4225 13.7455L17.3585 13.5855C17.3372 13.5641 17.3265 13.5321 17.3265 13.4895L17.2945 13.4255V13.3935C17.3585 13.6281 17.4545 13.8415 17.5825 14.0335ZM18.1905 24.7855C18.1905 24.7428 18.2119 24.6788 18.2545 24.5935C18.2545 24.5721 18.2705 24.5455 18.3025 24.5135C18.3345 24.4815 18.3772 24.4655 18.4305 24.4655C18.4839 24.4655 18.5159 24.4708 18.5265 24.4815C18.5372 24.4921 18.5425 24.4975 18.5425 24.4975L18.5745 24.5295C18.5959 24.5295 18.6065 24.5401 18.6065 24.5615C18.6492 24.6041 18.6812 24.6468 18.7025 24.6895C18.7452 24.7748 18.7612 24.8761 18.7505 24.9935C18.7399 25.1108 18.7079 25.2015 18.6545 25.2655C18.6012 25.3295 18.5425 25.3615 18.4785 25.3615H18.3825C18.3825 25.3401 18.3825 25.3295 18.3825 25.3295H18.3505L18.2865 25.2335C18.2652 25.2335 18.2545 25.2228 18.2545 25.2015L18.2225 25.1695C18.2012 25.1268 18.1905 25.0628 18.1905 24.9775V24.7855ZM17.3265 23.2495C17.3265 23.2281 17.3319 23.1961 17.3425 23.1535C17.3532 23.1108 17.3692 23.0788 17.3905 23.0575L17.4545 22.9615C17.4972 22.9188 17.5345 22.8975 17.5665 22.8975C17.5985 22.8975 17.6359 22.9188 17.6785 22.9615C17.6785 22.9615 17.6839 22.9615 17.6945 22.9615C17.7052 22.9615 17.7319 22.9828 17.7745 23.0255L17.8385 23.1215C17.8812 23.1855 17.9025 23.2815 17.9025 23.4095C17.9025 23.5375 17.8759 23.6388 17.8225 23.7135C17.7692 23.7881 17.6999 23.8255 17.6145 23.8255C17.6145 23.8255 17.6039 23.8255 17.5825 23.8255C17.5612 23.8255 17.5452 23.8201 17.5345 23.8095C17.5239 23.7988 17.5132 23.7881 17.5025 23.7775C17.4919 23.7668 17.4865 23.7615 17.4865 23.7615L17.4545 23.7295C17.4545 23.7081 17.4439 23.6975 17.4225 23.6975L17.3905 23.6015C17.3692 23.5588 17.3585 23.5055 17.3585 23.4415V23.3775C17.3372 23.3348 17.3265 23.2921 17.3265 23.2495ZM16.6865 24.7855C16.6865 24.7428 16.7079 24.6788 16.7505 24.5935C16.7505 24.5721 16.7665 24.5455 16.7985 24.5135C16.8305 24.4815 16.8732 24.4655 16.9265 24.4655C16.9799 24.4655 17.0119 24.4708 17.0225 24.4815C17.0332 24.4921 17.0385 24.4975 17.0385 24.4975L17.0705 24.5295C17.0919 24.5295 17.1025 24.5401 17.1025 24.5615C17.1452 24.6041 17.1772 24.6468 17.1985 24.6895C17.2412 24.7748 17.2572 24.8761 17.2465 24.9935C17.2359 25.1108 17.2039 25.2015 17.1505 25.2655C17.0972 25.3295 17.0385 25.3615 16.9745 25.3615H16.8785C16.8785 25.3401 16.8785 25.3295 16.8785 25.3295H16.8465L16.7825 25.2335C16.7612 25.2335 16.7505 25.2228 16.7505 25.2015L16.7185 25.1695C16.6972 25.1268 16.6865 25.0628 16.6865 24.9775V24.7855ZM18.7345 23.6015C18.7132 23.5588 18.7025 23.4948 18.7025 23.4095V23.2495C18.7025 23.1641 18.7239 23.1001 18.7665 23.0575C18.7665 23.0361 18.7879 23.0041 18.8305 22.9615C18.8732 22.9188 18.9105 22.8975 18.9425 22.8975C18.9745 22.8975 19.0119 22.9188 19.0545 22.9615C19.0545 22.9615 19.0652 22.9615 19.0865 22.9615C19.1079 22.9615 19.1185 22.9828 19.1185 23.0255L19.2145 23.1215C19.2572 23.2495 19.2785 23.3561 19.2785 23.4415L19.1825 23.6975C19.0972 23.7828 19.0332 23.8255 18.9905 23.8255H18.9585L18.8945 23.7935C18.8732 23.7935 18.8625 23.7881 18.8625 23.7775C18.8625 23.7668 18.8625 23.7615 18.8625 23.7615H18.8305L18.7985 23.6975C18.7559 23.6548 18.7345 23.6228 18.7345 23.6015ZM15.9505 23.2495C15.9505 23.2281 15.9559 23.1961 15.9665 23.1535C15.9772 23.1108 15.9932 23.0788 16.0145 23.0575L16.0785 22.9615C16.1212 22.9188 16.1585 22.8975 16.1905 22.8975C16.2225 22.8975 16.2599 22.9188 16.3025 22.9615C16.3025 22.9615 16.3079 22.9615 16.3185 22.9615C16.3292 22.9615 16.3559 22.9828 16.3985 23.0255L16.4625 23.1215C16.5052 23.1855 16.5265 23.2815 16.5265 23.4095C16.5265 23.5375 16.4999 23.6388 16.4465 23.7135C16.3932 23.7881 16.3239 23.8255 16.2385 23.8255C16.2385 23.8255 16.2279 23.8255 16.2065 23.8255C16.1852 23.8255 16.1692 23.8201 16.1585 23.8095C16.1479 23.7988 16.1372 23.7881 16.1265 23.7775C16.1159 23.7668 16.1105 23.7615 16.1105 23.7615L16.0785 23.7295C16.0785 23.7081 16.0679 23.6975 16.0465 23.6975L16.0145 23.6015C15.9932 23.5588 15.9825 23.5055 15.9825 23.4415V23.3775C15.9612 23.3348 15.9505 23.2921 15.9505 23.2495ZM21.1665 15.5375C21.6999 15.4095 22.1692 15.2281 22.5745 14.9935C23.0652 14.6948 23.4385 14.3748 23.6945 14.0335C23.8652 13.8201 23.9932 13.6175 24.0785 13.4255L24.1425 13.3295C24.1425 13.2868 24.1532 13.2548 24.1745 13.2335C24.2172 13.1481 24.2599 12.9988 24.3025 12.7855V12.7215V12.4335L24.3985 12.1455C24.4412 11.9321 24.4732 11.7828 24.4945 11.6975C24.5372 11.3561 24.5479 11.1108 24.5265 10.9615C24.5052 10.7695 24.4305 10.5241 24.3025 10.2255C24.1745 9.99081 24.0145 9.79881 23.8225 9.64947C23.5879 9.45747 23.3745 9.31881 23.1825 9.23347C22.9052 9.12681 22.6599 9.04147 22.4465 8.97747C22.0625 8.87081 21.5612 8.83881 20.9425 8.88147C20.4519 8.94547 19.9612 9.07347 19.4705 9.26547C18.9372 9.52147 18.5105 9.78814 18.1905 10.0655C17.8065 10.3855 17.4972 10.7588 17.2625 11.1855C17.0065 11.6548 16.8785 12.1135 16.8785 12.5615V12.4655C16.8785 12.0175 17.0065 11.5161 17.2625 10.9615C17.5185 10.5135 17.8492 10.1188 18.2545 9.77747C18.7025 9.41481 19.1452 9.13214 19.5825 8.92947C20.0199 8.72681 20.5265 8.59347 21.1025 8.52947C21.6785 8.46547 22.2225 8.49747 22.7345 8.62547C23.0759 8.71081 23.3319 8.79614 23.5025 8.88147C23.7372 8.98814 23.9612 9.12681 24.1745 9.29747C24.4305 9.55347 24.5905 9.76681 24.6545 9.93747C24.8039 10.1721 24.8945 10.4228 24.9265 10.6895C24.9585 10.9561 24.9425 11.2068 24.8785 11.4415C24.8572 11.5908 24.7932 11.9055 24.6865 12.3855C24.5799 12.8655 24.4945 13.1588 24.4305 13.2655C24.3239 13.5215 24.1852 13.7348 24.0145 13.9055C23.7159 14.2895 23.3212 14.6201 22.8305 14.8975C22.3825 15.1535 21.8919 15.3455 21.3585 15.4735C20.9105 15.5801 20.5052 15.6228 20.1425 15.6015C20.3985 15.6441 20.7399 15.6228 21.1665 15.5375ZM21.5505 24.0495C21.5292 24.0281 21.6145 23.9961 21.8065 23.9535H21.8705L22.0625 23.8895C22.1479 23.8895 22.2225 23.8788 22.2865 23.8575H22.5105L22.7665 23.8255H24.0785L24.3025 23.8575H24.5585C24.6865 23.8575 24.7825 23.8681 24.8465 23.8895C24.9745 23.8895 25.0705 23.9001 25.1345 23.9215L25.4225 23.9535C25.4439 23.9748 25.4865 23.9855 25.5505 23.9855L25.6465 24.0175V24.0495H25.6785V24.0815L25.7105 24.1135L25.6785 24.3055C25.6572 24.3055 25.6465 24.3108 25.6465 24.3215C25.6465 24.3321 25.6465 24.3375 25.6465 24.3375H25.6145V24.3695H23.9505C23.8865 24.3481 23.7905 24.3375 23.6625 24.3375H23.0865L22.8305 24.3055H22.5745L22.3505 24.2735H21.9345L21.8065 24.2415C21.7425 24.2415 21.6679 24.2201 21.5825 24.1775H21.5505V24.1455L21.5185 24.1135V24.0815H21.5505H21.6145L21.5505 24.0495ZM23.5345 25.8735C23.5132 25.8735 23.4812 25.8628 23.4385 25.8415L23.2145 25.7775C23.1079 25.7775 23.0225 25.7668 22.9585 25.7455L22.7345 25.7135L22.5425 25.6495L22.3505 25.6175L22.1905 25.5535C22.1265 25.5535 22.0679 25.5481 22.0145 25.5375C21.9612 25.5268 21.9239 25.5108 21.9025 25.4895L21.7745 25.4575C21.7319 25.4361 21.6892 25.4041 21.6465 25.3615H21.6145V25.3295V25.2975V25.2655C21.6145 25.2655 21.6145 25.2601 21.6145 25.2495C21.6145 25.2388 21.6892 25.2335 21.8385 25.2335L21.9025 25.2015C21.9665 25.2015 22.0199 25.1908 22.0625 25.1695H22.2225L22.4145 25.2015H22.6065L22.7665 25.2335C22.8519 25.2335 22.9265 25.2441 22.9905 25.2655L23.1185 25.2975H23.2145L23.2785 25.3295C23.3639 25.3295 23.4279 25.3401 23.4705 25.3615L23.8225 25.4575L24.0145 25.4895L24.2065 25.5535C24.2279 25.5535 24.2812 25.5641 24.3665 25.5855L24.6225 25.6815L24.7185 25.7455C24.7399 25.7455 24.7559 25.7508 24.7665 25.7615C24.7772 25.7721 24.7825 25.7775 24.7825 25.7775V25.8095V25.8415C24.8039 25.8201 24.8039 25.8201 24.7825 25.8415L24.6865 26.0015C24.6652 26.0015 24.6545 26.0121 24.6545 26.0335H24.6225H24.5905H24.4625L24.1105 25.9695C24.0252 25.9268 23.9505 25.9001 23.8865 25.8895C23.8225 25.8788 23.7372 25.8735 23.6305 25.8735C23.6092 25.8948 23.5879 25.8948 23.5665 25.8735H23.5345ZM25.7105 5.42547C26.0945 4.84947 26.4892 4.33747 26.8945 3.88947C27.2145 3.52681 27.5559 3.22814 27.9185 2.99347L27.9825 2.92947C28.0679 2.88681 28.1319 2.85481 28.1745 2.83347C28.6225 2.57747 28.9959 2.38547 29.2945 2.25747L29.5825 2.16147C29.3692 2.28947 29.0705 2.50281 28.6865 2.80147C27.8545 3.44147 27.1079 4.15614 26.4465 4.94547C25.8492 5.60681 25.3585 6.26814 24.9745 6.92947L24.9425 6.96147C24.9212 6.96147 24.9105 6.97214 24.9105 6.99347C25.1452 6.43881 25.4119 5.91614 25.7105 5.42547ZM23.9825 7.28147C24.4519 6.55614 24.8252 6.01214 25.1025 5.64947C24.8039 6.16147 24.5799 6.60947 24.4305 6.99347C24.3665 7.12147 24.3985 7.24947 24.5265 7.37747C24.3985 7.37747 24.2065 7.35614 23.9505 7.31347H23.9825C23.9825 7.31347 23.9825 7.30281 23.9825 7.28147ZM11.9185 4.01747C11.9612 3.42014 11.9505 2.86547 11.8865 2.35347V2.32147C11.8439 1.95881 11.7905 1.69214 11.7265 1.52147V1.45747C11.8119 1.71347 11.8652 1.90547 11.8865 2.03347C11.9719 2.41747 12.0252 2.70547 12.0465 2.89747C12.1105 3.43081 12.1212 4.01747 12.0785 4.65747L11.9825 5.55347C11.9399 5.93747 11.8972 6.22547 11.8545 6.41747L11.8225 6.51347C11.8012 6.66281 11.7905 6.75881 11.7905 6.80147C11.7692 6.88681 11.7692 6.95081 11.7905 6.99347L11.0865 7.02547C11.1292 6.98281 11.1719 6.91881 11.2145 6.83347L11.4065 6.44947L11.4705 6.22547C11.5772 5.96947 11.6412 5.77747 11.6625 5.64947C11.7479 5.28681 11.8332 4.74281 11.9185 4.01747ZM10.8305 6.19347C10.8519 6.08681 10.8732 5.93747 10.8945 5.74547L10.9585 5.32947C11.0439 4.94547 11.1505 4.36947 11.2785 3.60147C11.3212 3.21747 11.3479 2.91881 11.3585 2.70547C11.3692 2.49214 11.3532 2.19347 11.3105 1.80947V1.77747C11.2252 1.41481 11.1185 1.12681 10.9905 0.913473C10.9905 0.892139 10.9905 0.881474 10.9905 0.881474H10.9585C11.0439 1.00947 11.1079 1.12147 11.1505 1.21747C11.1932 1.31347 11.2412 1.45214 11.2945 1.63347C11.3479 1.81481 11.3959 2.11881 11.4385 2.54547C11.4599 2.73747 11.4705 3.04681 11.4705 3.47347C11.4705 4.00681 11.3959 4.62547 11.2465 5.32947C11.1825 5.58547 11.0972 5.88414 10.9905 6.22547L10.7985 6.64147H10.7665V6.57747C10.8092 6.40681 10.8305 6.27881 10.8305 6.19347ZM10.7025 2.89747C10.7452 2.55614 10.7772 2.28947 10.7985 2.09747V2.48147C10.7985 2.90814 10.7879 3.22814 10.7665 3.44147C10.7025 4.01747 10.5852 4.65747 10.4145 5.36147L10.3185 5.61747C10.2545 5.85214 10.1905 6.02281 10.1265 6.12947L10.2225 5.68147L10.3505 5.29747C10.5425 4.59347 10.6492 3.95347 10.6705 3.37747L10.7025 2.89747Z" fill="#007D9C" />
</svg>