<svg width="76" height="70" viewBox="0 0 76 70" fill="none" xmlns="http://www.w3.org/2000/svg">
<rect width="75.6811" height="69.1001" rx="14.2588" fill="white"/>
<path opacity="0.4" d="M37.7451 51.1791C46.8324 51.1791 54.1992 43.8124 54.1992 34.725C54.1992 25.6376 46.8324 18.2708 37.7451 18.2708C28.6577 18.2708 21.2909 25.6376 21.2909 34.725C21.2909 43.8124 28.6577 51.1791 37.7451 51.1791Z" fill="#003337"/>
<path d="M43.8489 41.1915C43.635 41.1915 43.4211 41.1421 43.2236 41.0105L38.1228 37.9665C36.8559 37.2096 35.918 35.5477 35.918 34.0833V27.3371C35.918 26.6625 36.4774 26.103 37.152 26.103C37.8267 26.103 38.3861 26.6625 38.3861 27.3371V34.0833C38.3861 34.6756 38.8797 35.5477 39.3898 35.8439L44.4906 38.8879C45.0829 39.2335 45.2639 39.9903 44.9184 40.5827C44.6716 40.9776 44.2602 41.1915 43.8489 41.1915Z" fill="#003337"/>
</svg>
