<svg width="71" height="71" viewBox="0 0 71 71" fill="none" xmlns="http://www.w3.org/2000/svg">
<path d="M57.0957 23.4299V38.6654C57.0957 47.7771 51.889 51.682 44.079 51.682H18.0752C16.744 51.682 15.4719 51.5638 14.2886 51.2976C13.549 51.1792 12.839 50.9722 12.1882 50.7355C7.75069 49.0788 5.05859 45.2329 5.05859 38.6654V23.4299C5.05859 14.3183 10.2652 10.4134 18.0752 10.4134H44.079C50.7057 10.4134 55.4686 13.2238 56.7407 19.6434C56.9478 20.8267 57.0957 22.0395 57.0957 23.4299Z" stroke="#007D9C" stroke-width="2.5" stroke-miterlimit="10" stroke-linecap="round" stroke-linejoin="round"/>
<path d="M65.9751 32.3052V47.5407C65.9751 56.6523 60.7684 60.5572 52.9584 60.5572H26.9546C24.7655 60.5572 22.7834 60.2616 21.0676 59.6107C17.5472 58.3091 15.1509 55.617 14.293 51.2978C15.4763 51.5641 16.7484 51.6822 18.0796 51.6822H44.0834C51.8934 51.6822 57.1001 47.7773 57.1001 38.6657V23.4302C57.1001 22.0398 56.9817 20.7974 56.7451 19.6436C62.3659 20.8269 65.9751 24.791 65.9751 32.3052Z" stroke="#007D9C" stroke-width="2.5" stroke-miterlimit="10" stroke-linecap="round" stroke-linejoin="round"/>
<path d="M31.0561 38.8721C35.3695 38.8721 38.8662 35.3754 38.8662 31.0621C38.8662 26.7487 35.3695 23.252 31.0561 23.252C26.7428 23.252 23.2461 26.7487 23.2461 31.0621C23.2461 35.3754 26.7428 38.8721 31.0561 38.8721Z" stroke="#007D9C" stroke-width="2.5" stroke-miterlimit="10" stroke-linecap="round" stroke-linejoin="round"/>
<path d="M14.1406 24.5541V37.5709" stroke="#007D9C" stroke-width="2.5" stroke-miterlimit="10" stroke-linecap="round" stroke-linejoin="round"/>
<path d="M47.9883 24.555V37.5717" stroke="#007D9C" stroke-width="2.5" stroke-miterlimit="10" stroke-linecap="round" stroke-linejoin="round"/>
</svg>
