<svg width="68" height="68" viewBox="0 0 68 68" fill="none" xmlns="http://www.w3.org/2000/svg">
<path d="M26.918 38.9583C26.918 41.7066 29.043 43.9166 31.6497 43.9166H36.9763C39.2429 43.9166 41.0846 41.99 41.0846 39.5816C41.0846 37.0033 39.9513 36.0683 38.2797 35.4733L29.7513 32.4983C28.0796 31.9033 26.9463 30.9967 26.9463 28.39C26.9463 26.01 28.7879 24.055 31.0546 24.055H36.3813C38.988 24.055 41.113 26.265 41.113 29.0133" stroke="#007D9C" stroke-width="2.5" stroke-linecap="round" stroke-linejoin="round"/>
<path d="M34 21.25V46.75" stroke="#007D9C" stroke-width="2.5" stroke-linecap="round" stroke-linejoin="round"/>
<path d="M62.3346 34.0001C62.3346 49.6401 49.6413 62.3334 34.0013 62.3334C18.3613 62.3334 5.66797 49.6401 5.66797 34.0001C5.66797 18.3601 18.3613 5.66675 34.0013 5.66675" stroke="#007D9C" stroke-width="2.5" stroke-linecap="round" stroke-linejoin="round"/>
<path d="M48.168 8.5V19.8333H59.5013" stroke="#007D9C" stroke-width="2.5" stroke-linecap="round" stroke-linejoin="round"/>
<path d="M62.3346 5.66675L48.168 19.8334" stroke="#007D9C" stroke-width="2.5" stroke-linecap="round" stroke-linejoin="round"/>
</svg>
