<svg width="42" height="42" viewBox="0 0 42 42" fill="none" xmlns="http://www.w3.org/2000/svg">
<g clip-path="url(#clip0_446_22600)">
<g clip-path="url(#clip1_446_22600)">
<g clip-path="url(#clip2_446_22600)">
<path d="M12.9883 18.998V31.012" stroke="#1A1E21" stroke-width="1.95349" stroke-linecap="round"/>
<path d="M19.0003 25.0039H6.98633" stroke="#1A1E21" stroke-width="1.95349" stroke-linecap="round"/>
<path d="M35.0175 21H25.0059" stroke="#1A1E21" stroke-width="1.95349" stroke-linecap="round"/>
<path d="M31.0109 29.0098H25.0039" stroke="#1A1E21" stroke-width="1.95349" stroke-linecap="round"/>
<path d="M17.0938 4.98121C17.0938 2.7695 18.8867 0.976562 21.0984 0.976562C23.3101 0.976562 25.1031 2.7695 25.1031 4.98121V8.98586C25.1031 11.1976 23.3101 12.9905 21.0984 12.9905C18.8867 12.9905 17.0938 11.1976 17.0938 8.98586V4.98121Z" fill="#FFE37E"/>
<path d="M25.0045 8.98599H33.0138C37.4372 8.98599 41.0231 12.5719 41.0231 16.9953V33.0139C41.0231 37.4373 37.4372 41.0232 33.0138 41.0232H8.98587C4.56244 41.0232 0.976562 37.4373 0.976562 33.0139V16.9953C0.976562 12.5719 4.56245 8.98599 8.98587 8.98599H16.9952M25.0045 8.98599V4.98134C25.0045 2.76963 23.2116 0.976685 20.9998 0.976685C18.7881 0.976685 16.9952 2.76963 16.9952 4.98134V8.98599M25.0045 8.98599C25.0045 11.1977 23.2116 12.9906 20.9998 12.9906C18.7881 12.9906 16.9952 11.1977 16.9952 8.98599" stroke="#1A1E21" stroke-width="1.95349"/>
</g>
</g>
</g>
<defs>
<clipPath id="clip0_446_22600">
<rect width="42" height="42" fill="white"/>
</clipPath>
<clipPath id="clip1_446_22600">
<rect width="42" height="42" fill="white"/>
</clipPath>
<clipPath id="clip2_446_22600">
<rect width="42" height="42" fill="white"/>
</clipPath>
</defs>
</svg>
