<svg width="64" height="70" viewBox="0 0 64 70" fill="none" xmlns="http://www.w3.org/2000/svg">
<path d="M44.52 35.14C44.1467 34.44 43.6217 33.8917 42.945 33.495C42.2683 33.0983 41.5333 32.9 40.74 32.9H39.34V31.71C39.34 30.8233 39.025 30.065 38.395 29.435C37.765 28.805 37.0067 28.49 36.12 28.49H27.37C26.4833 28.49 25.725 28.805 25.095 29.435C24.465 30.065 24.15 30.8233 24.15 31.71V32.9H22.75C21.9567 32.9 21.2217 33.0983 20.545 33.495C19.8683 33.8917 19.3433 34.44 18.97 35.14L8.47 54.11C7.95667 55.0433 7.7 56.0933 7.7 57.26V60.2C7.7 61.0867 8.015 61.845 8.645 62.475C9.275 63.105 10.0333 63.42 10.92 63.42H15.33V67.9C15.33 68.5067 15.54 69.0083 15.96 69.405C16.38 69.8017 16.8933 70 17.5 70H45.99C46.55 70 47.04 69.79 47.46 69.37C47.88 68.95 48.09 68.46 48.09 67.9V63.42H52.57C53.4567 63.42 54.2033 63.105 54.81 62.475C55.4167 61.845 55.72 61.0867 55.72 60.2V57.26C55.72 56 55.4633 54.95 54.95 54.11L44.52 35.14ZM26.18 31.71C26.18 31.3833 26.285 31.1033 26.495 30.87C26.705 30.6367 26.9733 30.52 27.3 30.52H36.12C36.4467 30.52 36.715 30.6367 36.925 30.87C37.135 31.1033 37.24 31.3833 37.24 31.71V32.9H26.18V31.71ZM46.06 67.9C46.06 67.9 46.0367 67.9233 45.99 67.97H17.5C17.4533 67.97 17.43 67.9467 17.43 67.9V63.42H46.06V67.9ZM53.69 60.2C53.69 60.5267 53.585 60.8067 53.375 61.04C53.165 61.2733 52.8967 61.39 52.57 61.39H47.04H16.38H10.92C10.5933 61.39 10.3133 61.2733 10.08 61.04C9.84667 60.8067 9.73 60.5267 9.73 60.2V56.84H14.14C14.42 56.84 14.665 56.735 14.875 56.525C15.085 56.315 15.19 56.07 15.19 55.79C15.19 55.51 15.085 55.2767 14.875 55.09C14.665 54.9033 14.42 54.81 14.14 54.81H10.43L20.72 36.12C20.9067 35.7467 21.175 35.455 21.525 35.245C21.875 35.035 22.26 34.93 22.68 34.93H40.74C41.1133 34.93 41.4867 35.035 41.86 35.245C42.2333 35.455 42.5133 35.7467 42.7 36.12L52.99 54.81H18.55C18.27 54.81 18.0367 54.9033 17.85 55.09C17.6633 55.2767 17.57 55.51 17.57 55.79C17.57 56.07 17.6633 56.315 17.85 56.525C18.0367 56.735 18.27 56.84 18.55 56.84H53.69V60.2ZM10.99 31.71C10.99 34.1367 11.41 36.5167 12.25 38.85C12.3433 39.13 12.5183 39.3283 12.775 39.445C13.0317 39.5617 13.2883 39.5733 13.545 39.48C13.8017 39.3867 13.9883 39.2117 14.105 38.955C14.2217 38.6983 14.2333 38.43 14.14 38.15C13.3933 36.0967 13.02 33.95 13.02 31.71C13.02 28.35 13.86 25.235 15.54 22.365C17.22 19.495 19.495 17.22 22.365 15.54C25.235 13.86 28.35 13.02 31.71 13.02C35.07 13.02 38.185 13.86 41.055 15.54C43.925 17.22 46.2 19.495 47.88 22.365C49.56 25.235 50.4 28.35 50.4 31.71C50.4 33.95 50.0267 36.0967 49.28 38.15C49.1867 38.43 49.1983 38.6983 49.315 38.955C49.4317 39.2117 49.6067 39.3867 49.84 39.48L50.19 39.55C50.4233 39.55 50.6333 39.48 50.82 39.34C51.0067 39.2 51.1233 39.0367 51.17 38.85C52.0567 36.4233 52.5 34.0433 52.5 31.71C52.5 28.63 51.8583 25.725 50.575 22.995C49.2917 20.265 47.5067 17.92 45.22 15.96C42.9333 14 40.3667 12.6233 37.52 11.83C37.9867 11.2233 38.22 10.5467 38.22 9.8C38.22 8.91333 37.905 8.155 37.275 7.525C36.645 6.895 35.8867 6.58 35 6.58H28.42C27.5333 6.58 26.775 6.895 26.145 7.525C25.515 8.155 25.2 8.91333 25.2 9.8C25.2 10.5467 25.4333 11.2233 25.9 11.83C23.0533 12.6233 20.4983 14 18.235 15.96C15.9717 17.92 14.1983 20.265 12.915 22.995C11.6317 25.725 10.99 28.63 10.99 31.71ZM28.42 10.99C28.0933 10.99 27.825 10.8733 27.615 10.64C27.405 10.4067 27.3 10.1267 27.3 9.8C27.3 9.47333 27.405 9.19333 27.615 8.96C27.825 8.72667 28.0933 8.61 28.42 8.61H35C35.3267 8.61 35.6067 8.72667 35.84 8.96C36.0733 9.19333 36.19 9.47333 36.19 9.8C36.19 10.1267 36.0733 10.4067 35.84 10.64C35.6067 10.8733 35.3267 10.99 35 10.99H28.42ZM54.11 9.31C51.1233 6.32333 47.705 4.025 43.855 2.415C40.005 0.805 35.9567 0 31.71 0C27.4633 0 23.415 0.805 19.565 2.415C15.715 4.025 12.2967 6.32333 9.31 9.31C6.32333 12.2967 4.025 15.715 2.415 19.565C0.805 23.415 0 27.4633 0 31.71C0 35.1167 0.525 38.4183 1.575 41.615C2.625 44.8117 4.15333 47.7633 6.16 50.47C6.39333 50.75 6.67333 50.89 7 50.89C7.23333 50.89 7.42 50.82 7.56 50.68C7.79333 50.4933 7.93333 50.2717 7.98 50.015C8.02667 49.7583 7.95667 49.5133 7.77 49.28C5.90333 46.6667 4.48 43.8783 3.5 40.915C2.52 37.9517 2.03 34.8833 2.03 31.71C2.03 26.3433 3.38333 21.35 6.09 16.73C8.70333 12.25 12.25 8.70333 16.73 6.09C21.35 3.38333 26.3433 2.03 31.71 2.03C35.6767 2.03 39.4683 2.77666 43.085 4.27C46.7017 5.76334 49.91 7.91 52.71 10.71C55.51 13.51 57.6567 16.7183 59.15 20.335C60.6433 23.9517 61.39 27.7433 61.39 31.71C61.39 34.8833 60.9 37.9517 59.92 40.915C58.94 43.8783 57.5167 46.6433 55.65 49.21C55.4633 49.4433 55.3933 49.7 55.44 49.98C55.4867 50.26 55.615 50.4933 55.825 50.68C56.035 50.8667 56.28 50.9367 56.56 50.89C56.84 50.8433 57.0733 50.7033 57.26 50.47C59.2667 47.7633 60.795 44.8117 61.845 41.615C62.895 38.4183 63.42 35.1167 63.42 31.71C63.42 27.4633 62.615 23.415 61.005 19.565C59.395 15.715 57.0967 12.2967 54.11 9.31ZM55.86 32.76H58.03C58.31 32.76 58.5433 32.655 58.73 32.445C58.9167 32.235 59.01 31.99 59.01 31.71C59.01 31.43 58.9167 31.185 58.73 30.975C58.5433 30.765 58.31 30.66 58.03 30.66H55.86C55.58 30.66 55.335 30.765 55.125 30.975C54.915 31.185 54.81 31.43 54.81 31.71C54.81 31.99 54.9033 32.235 55.09 32.445C55.2767 32.655 55.5333 32.76 55.86 32.76ZM7.63 30.66H5.39C5.11 30.66 4.87667 30.765 4.69 30.975C4.50333 31.185 4.41 31.43 4.41 31.71C4.41 31.99 4.50333 32.235 4.69 32.445C4.87667 32.655 5.11 32.76 5.39 32.76H7.63C7.91 32.76 8.14333 32.655 8.33 32.445C8.51667 32.235 8.61 31.99 8.61 31.71C8.61 31.43 8.51667 31.185 8.33 30.975C8.14333 30.765 7.91 30.66 7.63 30.66Z" fill="#007D9C"/>
</svg>
