<svg width="76" height="70" viewBox="0 0 76 70" fill="none" xmlns="http://www.w3.org/2000/svg">
<rect width="75.6811" height="69.1001" rx="14.2588" fill="white"/>
<path d="M49.7857 24.0996L39.597 18.6071C38.5245 18.0221 37.2245 18.0221 36.152 18.6071L25.9632 24.0996C25.2157 24.5058 24.7607 25.2858 24.7607 26.1796C24.7607 27.0571 25.2157 27.8533 25.9632 28.2596L36.152 33.7521C36.6882 34.0446 37.2895 34.1908 37.8745 34.1908C38.4595 34.1908 39.0607 34.0446 39.597 33.7521L49.7857 28.2596C50.5332 27.8533 50.9882 27.0733 50.9882 26.1796C50.9882 25.2858 50.5332 24.5058 49.7857 24.0996Z" fill="#234067"/>
<path opacity="0.4" d="M34.4778 35.6534L24.9878 30.9084C24.2565 30.5509 23.4115 30.5834 22.729 31.0059C22.0303 31.4446 21.624 32.1759 21.624 32.9884V41.9421C21.624 43.4859 22.4853 44.8834 23.8665 45.5821L33.3403 50.3271C33.6653 50.4896 34.0228 50.5709 34.3803 50.5709C34.8028 50.5709 35.2253 50.4571 35.599 50.2296C36.2978 49.8071 36.704 49.0596 36.704 48.2471V39.2934C36.7203 37.7334 35.859 36.3359 34.4778 35.6534Z" fill="#234067"/>
<path opacity="0.4" d="M53.0191 31.0059C52.3203 30.5834 51.4753 30.5346 50.7603 30.9084L41.2866 35.6534C39.9053 36.3521 39.0441 37.7334 39.0441 39.2934V48.2471C39.0441 49.0596 39.4503 49.8071 40.1491 50.2296C40.5228 50.4571 40.9453 50.5709 41.3678 50.5709C41.7253 50.5709 42.0828 50.4896 42.4078 50.3271L51.8816 45.5821C53.2628 44.8834 54.1241 43.5021 54.1241 41.9421V32.9884C54.1241 32.1759 53.7178 31.4446 53.0191 31.0059Z" fill="#234067"/>
</svg>
