<svg width="76" height="70" viewBox="0 0 76 70" fill="none" xmlns="http://www.w3.org/2000/svg">
<rect width="75.6811" height="69.1001" rx="14.2588" fill="white"/>
<path d="M46.649 46.1509H29.099C26.6615 46.1509 25.6865 45.1109 25.6865 42.5271V40.8371C25.6865 38.2534 26.6615 37.2134 29.099 37.2134H46.649C49.0865 37.2134 50.0615 38.2534 50.0615 40.8371V42.5271C50.0615 45.1109 49.0865 46.1509 46.649 46.1509Z" fill="#234067"/>
<path d="M39.0928 46.1509V49.4009C39.0928 50.0671 38.5403 50.6196 37.874 50.6196C37.2078 50.6196 36.6553 50.0671 36.6553 49.4009V46.1509H39.0928Z" fill="#234067"/>
<path d="M39.0928 32.3384H36.6553V37.2134H39.0928V32.3384Z" fill="#234067"/>
<path d="M39.0928 19.3384V23.4009H36.6553V19.3384C36.6553 18.6721 37.2078 18.1196 37.874 18.1196C38.5403 18.1196 39.0928 18.6721 39.0928 19.3384Z" fill="#234067"/>
<path opacity="0.4" d="M43.399 32.3384H32.349C29.9115 32.3384 28.9365 31.2984 28.9365 28.7146V27.0246C28.9365 24.4409 29.9115 23.4009 32.349 23.4009H43.399C45.8365 23.4009 46.8115 24.4409 46.8115 27.0246V28.7146C46.8115 31.2984 45.8365 32.3384 43.399 32.3384Z" fill="#234067"/>
</svg>
