<svg width="76" height="70" viewBox="0 0 76 70" fill="none" xmlns="http://www.w3.org/2000/svg">
<rect width="75.6811" height="69.1001" rx="14.2588" fill="white"/>
<path opacity="0.4" d="M21.624 30.7134C20.9578 30.7134 20.4053 30.1609 20.4053 29.4946V25.4321C20.4053 20.7196 24.2403 16.9009 28.9365 16.9009H32.999C33.6653 16.9009 34.2178 17.4534 34.2178 18.1196C34.2178 18.7859 33.6653 19.3384 32.999 19.3384H28.9365C25.5728 19.3384 22.8428 22.0684 22.8428 25.4321V29.4946C22.8428 30.1609 22.2903 30.7134 21.624 30.7134Z" fill="#234067"/>
<path d="M54.124 30.7134C53.4578 30.7134 52.9053 30.1609 52.9053 29.4946V25.4321C52.9053 22.0684 50.1753 19.3384 46.8115 19.3384H42.749C42.0828 19.3384 41.5303 18.7859 41.5303 18.1196C41.5303 17.4534 42.0828 16.9009 42.749 16.9009H46.8115C51.5078 16.9009 55.3428 20.7196 55.3428 25.4321V29.4946C55.3428 30.1609 54.7903 30.7134 54.124 30.7134Z" fill="#234067"/>
<path opacity="0.4" d="M46.8115 51.8384H44.374C43.7078 51.8384 43.1553 51.2859 43.1553 50.6196C43.1553 49.9534 43.7078 49.4009 44.374 49.4009H46.8115C50.1753 49.4009 52.9053 46.6709 52.9053 43.3071V40.8696C52.9053 40.2034 53.4578 39.6509 54.124 39.6509C54.7903 39.6509 55.3428 40.2034 55.3428 40.8696V43.3071C55.3428 48.0196 51.5078 51.8384 46.8115 51.8384Z" fill="#234067"/>
<path d="M32.999 51.8384H28.9365C24.2403 51.8384 20.4053 48.0196 20.4053 43.3071V39.2446C20.4053 38.5784 20.9578 38.0259 21.624 38.0259C22.2903 38.0259 22.8428 38.5784 22.8428 39.2446V43.3071C22.8428 46.6709 25.5728 49.4009 28.9365 49.4009H32.999C33.6653 49.4009 34.2178 49.9534 34.2178 50.6196C34.2178 51.2859 33.6653 51.8384 32.999 51.8384Z" fill="#234067"/>
<path d="M32.1868 33.3622C34.7715 33.3622 36.8668 31.2669 36.8668 28.6822C36.8668 26.0975 34.7715 24.0022 32.1868 24.0022C29.6021 24.0022 27.5068 26.0975 27.5068 28.6822C27.5068 31.2669 29.6021 33.3622 32.1868 33.3622Z" fill="#234067"/>
<path opacity="0.4" d="M30.5618 44.7372C32.2491 44.7372 33.6168 43.3694 33.6168 41.6822C33.6168 39.995 32.2491 38.6272 30.5618 38.6272C28.8746 38.6272 27.5068 39.995 27.5068 41.6822C27.5068 43.3694 28.8746 44.7372 30.5618 44.7372Z" fill="#234067"/>
<path opacity="0.4" d="M45.1868 30.1122C46.8741 30.1122 48.2418 28.7444 48.2418 27.0572C48.2418 25.37 46.8741 24.0022 45.1868 24.0022C43.4996 24.0022 42.1318 25.37 42.1318 27.0572C42.1318 28.7444 43.4996 30.1122 45.1868 30.1122Z" fill="#234067"/>
<path d="M43.5618 44.7372C46.1465 44.7372 48.2418 42.6419 48.2418 40.0572C48.2418 37.4725 46.1465 35.3772 43.5618 35.3772C40.9771 35.3772 38.8818 37.4725 38.8818 40.0572C38.8818 42.6419 40.9771 44.7372 43.5618 44.7372Z" fill="#234067"/>
</svg>
