<svg width="76" height="70" viewBox="0 0 76 70" fill="none" xmlns="http://www.w3.org/2000/svg">
<rect width="75.6811" height="69.1001" rx="14.2588" fill="white"/>
<path d="M43.7074 17.7134C38.8811 17.7134 34.9648 21.6296 34.9648 26.4559C34.9648 31.2821 38.8811 35.1984 43.7074 35.1984C48.5336 35.1984 52.4499 31.2821 52.4499 26.4559C52.4499 21.6296 48.5336 17.7134 43.7074 17.7134Z" fill="#234067"/>
<path opacity="0.4" d="M28.709 36.0433C25.7353 36.0433 23.2978 38.4646 23.2978 41.4546C23.2978 44.4446 25.719 46.8658 28.709 46.8658C31.6828 46.8658 34.1203 44.4446 34.1203 41.4546C34.1203 38.4646 31.6828 36.0433 28.709 36.0433Z" fill="#234067"/>
<path opacity="0.4" d="M45.3815 41.8771C42.8628 41.8771 40.8153 43.9246 40.8153 46.4433C40.8153 48.9621 42.8628 51.0096 45.3815 51.0096C47.9003 51.0096 49.9478 48.9621 49.9478 46.4433C49.9478 43.9246 47.9003 41.8771 45.3815 41.8771Z" fill="#234067"/>
</svg>
