<svg width="76" height="70" viewBox="0 0 76 70" fill="none" xmlns="http://www.w3.org/2000/svg">
<rect width="75.6811" height="69.1001" rx="14.2588" fill="white"/>
<path opacity="0.4" d="M54.124 23.2384V29.2509C54.124 32.9071 52.6615 34.3696 49.0053 34.3696H44.6178C40.9615 34.3696 39.499 32.9071 39.499 29.2509V23.2384C39.499 19.5821 40.9615 18.1196 44.6178 18.1196H49.0053C52.6615 18.1196 54.124 19.5821 54.124 23.2384Z" fill="#234067"/>
<path opacity="0.4" d="M36.249 39.4884V45.5009C36.249 49.1571 34.7865 50.6196 31.1303 50.6196H26.7428C23.0865 50.6196 21.624 49.1571 21.624 45.5009V39.4884C21.624 35.8321 23.0865 34.3696 26.7428 34.3696H31.1303C34.7865 34.3696 36.249 35.8321 36.249 39.4884Z" fill="#234067"/>
<path d="M42.3915 50.6196C41.9528 50.6196 41.5465 50.3758 41.3353 50.0021C41.124 49.6121 41.124 49.1571 41.3515 48.7671L42.9278 46.1346C43.269 45.5496 44.0165 45.3708 44.6015 45.7121C45.1865 46.0533 45.3653 46.8008 45.024 47.3858L44.7315 47.8733C48.7453 46.8333 51.7028 43.1933 51.7028 38.8708C51.7028 38.2046 52.2553 37.6521 52.9215 37.6521C53.5878 37.6521 54.124 38.2046 54.124 38.8871C54.124 45.3546 48.859 50.6196 42.3915 50.6196Z" fill="#234067"/>
<path d="M22.8428 31.0709C22.1765 31.0709 21.624 30.5346 21.624 29.8521C21.624 23.3846 26.889 18.1196 33.3565 18.1196C33.8115 18.1196 34.2015 18.3634 34.429 18.7371C34.6403 19.1271 34.6403 19.5821 34.4128 19.9721L32.8365 22.5884C32.479 23.1734 31.7315 23.3684 31.1628 23.0109C30.5778 22.6696 30.399 21.9221 30.7403 21.3371L31.0328 20.8496C27.0353 21.8896 24.0615 25.5296 24.0615 29.8521C24.0615 30.5346 23.509 31.0709 22.8428 31.0709Z" fill="#234067"/>
</svg>
