<svg width="76" height="70" viewBox="0 0 76 70" fill="none" xmlns="http://www.w3.org/2000/svg">
<rect width="75.6811" height="69.1001" rx="14.2588" fill="white"/>
<path opacity="0.4" d="M48.1928 46.8496C47.2991 49.1409 45.1216 50.6196 42.6678 50.6196H33.0803C30.6103 50.6196 28.4491 49.1409 27.5553 46.8496C26.6616 44.5421 27.2791 41.9909 29.0991 40.3334L35.6803 34.3696H40.0841L46.6491 40.3334C48.4691 41.9909 49.0703 44.5421 48.1928 46.8496Z" fill="#234067"/>
<path d="M40.8315 44.3471H34.9165C34.299 44.3471 33.8115 43.8433 33.8115 43.2421C33.8115 42.6246 34.3153 42.1371 34.9165 42.1371H40.8315C41.449 42.1371 41.9365 42.6408 41.9365 43.2421C41.9365 43.8433 41.4328 44.3471 40.8315 44.3471Z" fill="#234067"/>
<path d="M48.1928 21.8896C47.299 19.5984 45.1215 18.1196 42.6678 18.1196H33.0803C30.6265 18.1196 28.449 19.5984 27.5553 21.8896C26.6778 24.1971 27.279 26.7484 29.1153 28.4059L35.6803 34.3696H40.084L46.649 28.4059C48.469 26.7484 49.0703 24.1971 48.1928 21.8896ZM40.8315 26.6184H34.9165C34.299 26.6184 33.8115 26.1146 33.8115 25.5134C33.8115 24.9121 34.3153 24.4084 34.9165 24.4084H40.8315C41.449 24.4084 41.9365 24.9121 41.9365 25.5134C41.9365 26.1146 41.4328 26.6184 40.8315 26.6184Z" fill="#234067"/>
</svg>
