<svg width="48" height="48" viewBox="0 0 48 48" fill="none" xmlns="http://www.w3.org/2000/svg">
<path d="M43.4735 0.194393C42.1295 -0.093605 40.5935 -0.0616035 38.8655 0.290394C37.4895 0.578396 35.8895 1.1064 34.0655 1.87439C33.0095 2.29039 31.4735 2.9944 29.4575 3.98639L27.8735 4.75439C26.3375 5.45839 25.8735 6.6744 26.4815 8.40239C26.9935 9.77839 28.1615 11.4744 29.9855 13.4904C29.4415 13.9704 28.6575 14.6904 27.6335 15.6504C23.8895 14.8824 21.7295 14.4664 21.1535 14.4024C20.7055 14.3704 20.2895 14.4984 19.9055 14.7864C19.5215 15.0744 19.2735 15.4504 19.1615 15.9144C19.0495 16.3784 19.1215 16.7864 19.3775 17.1384C19.6335 17.4904 19.9855 17.6984 20.4335 17.7624L24.6575 18.5784C24.0495 19.1864 23.2015 20.0664 22.1135 21.2184L21.0095 22.3704L15.4415 20.8344C14.9935 20.7064 14.5535 20.7624 14.1215 21.0024C13.6895 21.2424 13.3935 21.5864 13.2335 22.0344C13.0735 22.4824 13.0815 22.9064 13.2575 23.3064C13.4335 23.7064 13.7455 23.9704 14.1935 24.0984L18.3215 25.2504C16.2415 27.5544 14.6895 29.3304 13.6655 30.5784C12.6735 29.9704 11.3375 29.6024 9.65751 29.4744C7.97751 29.3464 6.38551 29.4744 4.88151 29.8584C3.24951 30.2744 2.08151 30.8984 1.37751 31.7304C0.129509 33.2344 -0.270491 34.3544 0.177509 35.0904C0.561509 35.6984 1.50551 36.0824 3.00951 36.2424C3.90551 36.3384 5.31351 36.3544 7.23351 36.2904C8.35351 36.2584 9.10551 36.2584 9.48951 36.2904C10.0975 36.3224 10.4015 36.4344 10.4015 36.6264C10.4015 36.9464 10.2575 37.2824 9.96951 37.6344C9.20151 38.5944 8.76951 39.7624 8.67351 41.1384C8.60951 42.3544 8.81751 43.5304 9.29751 44.6664C9.77751 45.8024 10.3935 46.6104 11.1455 47.0904C11.8975 47.5704 12.6255 47.5544 13.3295 47.0424C14.1615 46.4344 14.8175 45.2184 15.2975 43.3944C15.7775 41.6984 16.0335 40.0024 16.0655 38.3064C16.1295 36.3544 15.9055 34.6584 15.3935 33.2184C15.4255 33.1864 15.4815 33.1544 15.5615 33.1224C15.6415 33.0904 15.7135 33.0584 15.7775 33.0264C15.8415 32.9944 15.8895 32.9304 15.9215 32.8344L16.2575 32.4504C17.6015 30.8824 18.9135 29.3784 20.1935 27.9384L20.9135 30.8664C21.0095 31.3144 21.2575 31.6424 21.6575 31.8504C22.0575 32.0584 22.4815 32.0824 22.9295 31.9224C23.2175 31.8264 23.4735 31.6744 23.6975 31.4664C23.9215 31.2584 24.0815 31.0024 24.1775 30.6984C24.2735 30.3944 24.2895 30.0824 24.2255 29.7624L23.0735 24.8184C24.2895 23.5064 25.5695 22.1784 26.9135 20.8344L27.5855 24.5304C27.6495 24.9784 27.8735 25.3144 28.2575 25.5384C28.6415 25.7624 29.0735 25.8104 29.5535 25.6824C29.9055 25.5544 30.1615 25.4104 30.3215 25.2504C30.5775 25.0264 30.7535 24.7704 30.8495 24.4824C30.9455 24.1944 30.9775 23.9064 30.9455 23.6184L29.9375 17.8584L32.1935 15.7944C33.9215 17.4264 35.7455 18.9784 37.6655 20.4504C38.7215 21.2824 39.5855 21.7144 40.2575 21.7464C40.9295 21.7784 41.5375 21.4744 42.0815 20.8344C42.4975 20.3224 43.0255 19.4104 43.6655 18.0984C44.9135 15.4744 45.8255 13.3144 46.4015 11.6184C47.3935 8.6744 47.7615 6.29039 47.5055 4.4664C47.1855 2.0984 45.8415 0.674397 43.4735 0.194393ZM38.0495 10.1784C37.4735 10.7224 36.7855 10.9784 35.9855 10.9464C35.1855 10.9144 34.5135 10.6024 33.9695 10.0104C33.4255 9.4184 33.1695 8.72239 33.2015 7.92239C33.2335 7.12239 33.5455 6.45039 34.1375 5.90639C34.7295 5.3624 35.4255 5.1064 36.2255 5.13839C37.0255 5.17039 37.6975 5.4824 38.2415 6.07439C38.7855 6.66639 39.0415 7.3624 39.0095 8.1624C38.9775 8.96239 38.6575 9.6344 38.0495 10.1784Z" fill="#007D9C"/>
</svg>
