<svg width="42" height="39" viewBox="0 0 42 39" fill="none" xmlns="http://www.w3.org/2000/svg">
<g clip-path="url(#clip0_446_22633)">
<g clip-path="url(#clip1_446_22633)">
<g clip-path="url(#clip2_446_22633)">
<path d="M6.87881 36.5721C10.0058 36.5721 12.5408 34.0371 12.5408 30.9101C12.5408 27.783 10.0058 25.248 6.87881 25.248C3.75177 25.248 1.2168 27.783 1.2168 30.9101C1.2168 34.0371 3.75177 36.5721 6.87881 36.5721Z" fill="#D7B8FF"/>
<path d="M35.08 36.5721C38.207 36.5721 40.742 34.0371 40.742 30.9101C40.742 27.783 38.207 25.248 35.08 25.248C31.9529 25.248 29.418 27.783 29.418 30.9101C29.418 34.0371 31.9529 36.5721 35.08 36.5721Z" fill="#D7B8FF"/>
<path d="M10.8851 26.3425C9.82858 25.3968 8.43328 24.8217 6.90373 24.8217C3.60544 24.8217 0.931641 27.4956 0.931641 30.7939C0.931641 34.0921 3.60544 36.766 6.90373 36.766C10.202 36.766 12.8758 34.0921 12.8758 30.7939C12.8758 29.0252 12.1069 27.4359 10.8851 26.3425ZM10.8851 26.3425L32.7828 0.933411" stroke="#1A1E21" stroke-width="1.86683" stroke-linecap="round" stroke-linejoin="round"/>
<path d="M30.7922 26.3425C31.8488 25.3968 33.2439 24.8217 34.7736 24.8217C38.072 24.8217 40.7457 27.4956 40.7457 30.7939C40.7457 34.0921 38.072 36.766 34.7736 36.766C31.4752 36.766 28.8015 34.0921 28.8015 30.7939C28.8015 29.0252 29.5706 27.4359 30.7922 26.3425ZM30.7922 26.3425L8.89453 0.933411" stroke="#1A1E21" stroke-width="1.86683" stroke-linecap="round" stroke-linejoin="round"/>
</g>
</g>
</g>
<defs>
<clipPath id="clip0_446_22633">
<rect width="42" height="38.27" fill="white"/>
</clipPath>
<clipPath id="clip1_446_22633">
<rect width="42" height="38.27" fill="white"/>
</clipPath>
<clipPath id="clip2_446_22633">
<rect width="42.0037" height="38.27" fill="white" transform="translate(-0.00195312)"/>
</clipPath>
</defs>
</svg>
