<svg width="71" height="71" viewBox="0 0 71 71" fill="none" xmlns="http://www.w3.org/2000/svg">
<path d="M8.875 65.0833H62.125" stroke="#007D9C" stroke-width="2.5" stroke-linecap="round" stroke-linejoin="round"/>
<path d="M16.5666 24.7908H11.8333C10.2063 24.7908 8.875 26.1221 8.875 27.7492V53.25C8.875 54.8771 10.2063 56.2083 11.8333 56.2083H16.5666C18.1937 56.2083 19.5249 54.8771 19.5249 53.25V27.7492C19.5249 26.1221 18.1937 24.7908 16.5666 24.7908Z" stroke="#007D9C" stroke-width="2.5" stroke-linecap="round" stroke-linejoin="round"/>
<path d="M37.8674 15.3537H33.1341C31.507 15.3537 30.1758 16.6849 30.1758 18.312V53.2499C30.1758 54.877 31.507 56.2083 33.1341 56.2083H37.8674C39.4945 56.2083 40.8257 54.877 40.8257 53.2499V18.312C40.8257 16.6849 39.4945 15.3537 37.8674 15.3537Z" stroke="#007D9C" stroke-width="2.5" stroke-linecap="round" stroke-linejoin="round"/>
<path d="M59.1682 5.91667H54.4349C52.8078 5.91667 51.4766 7.24792 51.4766 8.875V53.25C51.4766 54.8771 52.8078 56.2083 54.4349 56.2083H59.1682C60.7952 56.2083 62.1265 54.8771 62.1265 53.25V8.875C62.1265 7.24792 60.7952 5.91667 59.1682 5.91667Z" stroke="#007D9C" stroke-width="2.5" stroke-linecap="round" stroke-linejoin="round"/>
</svg>
