<svg width="47" height="52" viewBox="0 0 47 52" fill="none" xmlns="http://www.w3.org/2000/svg">
<path d="M35.5071 6.20165H28.5651C28.1946 4.63515 26.9637 3.4944 25.5134 3.4944H24.7553V3.17265C24.7553 1.42252 23.3318 -0.000976562 21.5817 -0.000976562H14.7274C12.9773 -0.000976562 11.5538 1.42252 11.5538 3.17265V3.4944H10.8063C9.35676 3.4944 8.12496 4.63515 7.75446 6.20165H0.8125C0.364 6.20165 0 6.56565 0 7.01415V51.1873C0 51.6358 0.364 51.9998 0.8125 51.9998H35.5071C35.9556 51.9998 36.3196 51.6358 36.3196 51.1873V7.01415C36.3196 6.56565 35.9556 6.20165 35.5071 6.20165ZM13.1796 3.17346C13.1796 2.31952 13.8743 1.62484 14.7282 1.62484H21.5825C22.4364 1.62484 23.1311 2.31952 23.1311 3.17346V3.49521H13.1796V3.17346ZM10.8071 5.12021H25.5142C26.3088 5.12021 26.997 5.98146 27.0604 7.12221C27.0628 7.14415 27.062 7.16771 27.062 7.18965V7.83965V9.25502H9.25846V8.55059V7.13684C9.26336 7.1084 9.26656 7.07915 9.26816 7.05071C9.32016 5.96765 9.99616 5.12021 10.8071 5.12021ZM34.6946 50.3756H1.625V7.82665H7.63266V10.0675C7.63266 10.1796 7.65536 10.2869 7.69686 10.3836C7.81946 10.6761 8.10876 10.8816 8.44596 10.8816H27.8745C28.323 10.8816 28.687 10.5176 28.687 10.0691V7.82665H34.6946V50.3756Z" fill="#007D9C"/>
<path d="M30.2043 41.8521H6.11523C5.66673 41.8521 5.30273 42.2161 5.30273 42.6646C5.30273 43.1131 5.66673 43.4771 6.11523 43.4771H30.2043C30.6528 43.4771 31.0168 43.1131 31.0168 42.6646C31.0168 42.2161 30.6528 41.8521 30.2043 41.8521Z" fill="#007D9C"/>
<path d="M23.519 45.5811H6.11523C5.66673 45.5811 5.30273 45.9451 5.30273 46.3936C5.30273 46.8421 5.66673 47.2061 6.11523 47.2061H23.5182C23.9667 47.2061 24.3307 46.8421 24.3307 46.3936C24.3307 45.9451 23.9675 45.5811 23.519 45.5811Z" fill="#007D9C"/>
<path d="M6.11523 32.4238C5.66673 32.4238 5.30273 32.7878 5.30273 33.2363C5.30273 33.6848 5.66673 34.0488 6.11523 34.0488H30.2043C30.6528 34.0488 31.0168 33.6848 31.0168 33.2363C31.0168 32.7878 30.6528 32.4238 30.2043 32.4238H6.11523Z" fill="#007D9C"/>
<path d="M6.11523 37.7778H23.5182C23.9667 37.7778 24.3307 37.4138 24.3307 36.9653C24.3307 36.5168 23.9667 36.1528 23.5182 36.1528H6.11523C5.66673 36.1528 5.30273 36.5168 5.30273 36.9653C5.30273 37.4138 5.66673 37.7778 6.11523 37.7778Z" fill="#007D9C"/>
<path d="M12.7765 24.9624C13.3859 25.5775 13.9108 26.0723 14.3812 26.4761C16.4799 28.3002 17.6166 28.5797 18.1155 28.5797H18.1975C18.6964 28.5797 19.8315 28.301 21.9228 26.4834C22.4258 26.052 22.9693 25.5385 23.5373 24.96C24.765 23.7112 25.5588 22.3819 25.896 21.0088C26.4606 18.7232 25.4093 16.4011 23.3382 15.3619C21.1583 14.2724 19.2595 15.3465 18.1569 16.471C17.0543 15.3457 15.1539 14.2732 12.9748 15.3627C10.9037 16.4011 9.85226 18.7232 10.417 21.008C10.7558 22.3819 11.5488 23.712 12.7781 24.9624H12.7765ZM13.7011 16.8155C15.8218 15.7544 17.411 18.0984 17.476 18.1959C17.6255 18.4242 17.8806 18.5616 18.1536 18.5624H18.1561C18.4283 18.5624 18.6826 18.4251 18.8337 18.1984C18.9003 18.0984 20.492 15.756 22.6086 16.8155C23.9963 17.511 24.6983 19.0751 24.3165 20.6204C24.0491 21.7067 23.3967 22.7841 22.3762 23.8217C21.84 24.3677 21.3305 24.8487 20.8593 25.2541C19.0953 26.7873 18.291 26.9409 18.1943 26.9539C18.1813 26.9539 18.1683 26.9539 18.1553 26.9539C18.1423 26.9539 18.1293 26.9539 18.1163 26.9539C18.0188 26.9401 17.2136 26.7865 15.4448 25.2484C15.4448 25.2484 15.4423 25.2468 15.4407 25.2452C15.0036 24.8698 14.5096 24.4034 13.9327 23.8209C12.913 22.7841 12.2606 21.7067 11.9925 20.6196C11.6106 19.0759 12.3134 17.511 13.7003 16.8163L13.7011 16.8155Z" fill="#007D9C"/>
<path d="M43.3176 9.56885H42.5839C41.0662 9.56885 39.832 10.803 39.832 12.3208V42.4093C39.832 43.1616 40.3154 43.7978 40.9857 44.0391L40.616 46.657C40.5982 46.7829 40.6103 46.9121 40.6518 47.0324L42.1582 51.4491C42.2735 51.7871 42.5888 52 42.9268 52C42.9341 52 42.9422 51.9959 42.9504 51.9959C42.9585 51.9959 42.9658 52 42.9739 52C43.3119 52 43.628 51.7871 43.7425 51.4491L45.2489 47.0324C45.2903 46.9121 45.3025 46.7829 45.2847 46.657L44.915 44.0391C45.5853 43.7978 46.0687 43.1616 46.0687 42.4093V12.3208C46.0687 10.803 44.8345 9.56885 43.3176 9.56885ZM43.6483 46.6919L42.9504 48.7386L42.2524 46.6919L42.6115 44.148H43.2883L43.6483 46.6919ZM44.4437 42.4093C44.4437 42.4718 44.3933 42.523 44.33 42.523H41.5707C41.5082 42.523 41.457 42.4726 41.457 42.4093V37.4034C41.4952 37.4059 41.5317 37.4148 41.5707 37.4148H44.33C44.369 37.4148 44.4055 37.4059 44.4437 37.4034V42.4093ZM44.33 35.7906H41.5707C41.5082 35.7906 41.457 35.7394 41.457 35.6769V18.2528C41.4952 18.2553 41.5317 18.2642 41.5707 18.2642H44.33C44.369 18.2642 44.4055 18.2553 44.4437 18.2528V35.6769C44.4437 35.7394 44.3933 35.7906 44.33 35.7906ZM41.4562 12.3208C41.4562 11.6992 41.9615 11.1938 42.5831 11.1938H43.3168C43.9375 11.1938 44.4429 11.6992 44.4429 12.3208V16.5263C44.4429 16.5888 44.3925 16.64 44.3292 16.64H41.5699C41.5073 16.64 41.4562 16.5896 41.4562 16.5263V12.3208Z" fill="#007D9C"/>
</svg>
