<svg width="48" height="42" viewBox="0 0 48 42" fill="none" xmlns="http://www.w3.org/2000/svg">
<path d="M47.9532 10.0989C47.8252 7.4109 47.2012 5.2189 46.0812 3.5229C45.0892 1.9869 43.7612 0.946899 42.0972 0.402897C40.5292 -0.109104 38.8492 -0.133102 37.0572 0.330898C35.2652 0.794899 33.5852 1.6509 32.0172 2.8989C30.9292 3.7629 29.9852 4.8829 29.1852 6.2589C28.4812 7.4109 27.8892 8.7069 27.4092 10.1469C27.0252 11.3309 26.7052 12.5629 26.4492 13.8429C26.2572 14.8029 26.1292 15.7309 26.0652 16.6269L25.9692 17.7309L25.2492 17.1549C24.6412 16.6749 23.9852 16.1949 23.2812 15.7149C22.3212 15.0109 21.3452 14.3869 20.3532 13.8429C19.1372 13.1069 17.9372 12.4829 16.7532 11.9709C15.3772 11.3629 14.0652 10.9149 12.8172 10.6269C11.3772 10.2749 10.0492 10.1309 8.83323 10.1949C7.42523 10.2589 6.16123 10.5629 5.04123 11.1069C3.79323 11.7469 2.70523 12.6749 1.77723 13.8909C0.561231 15.5229 -0.0307692 17.4109 0.00123077 19.5549C0.0332308 21.6029 0.625231 23.6909 1.77723 25.8189C2.92923 27.9469 4.51323 29.8589 6.52923 31.5549C8.70523 33.3469 11.1532 34.7069 13.8732 35.6349C16.4652 36.4989 19.3292 37.3149 22.4652 38.0829C24.9612 38.6909 27.5852 39.2509 30.3372 39.7629C32.2892 40.1149 34.2092 40.4349 36.0972 40.7229L38.3052 41.0109L39.3612 38.8989C40.2252 37.0749 41.0572 35.2349 41.8572 33.3789C42.9772 30.7549 43.9532 28.2429 44.7852 25.8429C45.8412 22.8669 46.6252 20.1309 47.1372 17.6349C47.7772 14.7229 48.0492 12.2109 47.9532 10.0989Z" fill="#007D9C"/>
</svg>
