<svg width="52" height="52" viewBox="0 0 52 52" fill="none" xmlns="http://www.w3.org/2000/svg">
<mask id="mask0_114_437" style="mask-type:luminance" maskUnits="userSpaceOnUse" x="0" y="0" width="52" height="52">
<path d="M52 0H0V52H52V0Z" fill="white"/>
</mask>
<g mask="url(#mask0_114_437)">
<path fill-rule="evenodd" clip-rule="evenodd" d="M17.8132 31.8091H28.8273C29.2805 31.8091 29.6484 31.4413 29.6484 30.9881C29.6484 30.5349 29.2805 30.1671 28.8273 30.1671H17.8132C17.36 30.1671 16.9922 30.5349 16.9922 30.9881C16.9922 31.4413 17.3599 31.8091 17.8132 31.8091Z" fill="#007D9C"/>
<path fill-rule="evenodd" clip-rule="evenodd" d="M24.7441 30.988V50.7551C24.7441 51.2084 25.1119 51.5761 25.5651 51.5761C26.0177 51.5761 26.3861 51.2083 26.3861 50.7551V30.988C26.3861 30.5347 26.0177 30.167 25.5651 30.167C25.1119 30.167 24.7441 30.5348 24.7441 30.988Z" fill="#007D9C"/>
<path fill-rule="evenodd" clip-rule="evenodd" d="M7.16169 0.423584C3.96618 0.423584 1.37109 3.01867 1.37109 6.2147C1.37109 9.41073 3.96618 12.0053 7.16169 12.0053C10.3578 12.0053 12.9529 9.41082 12.9529 6.2147C12.9529 3.01858 10.3578 0.423584 7.16169 0.423584ZM7.16169 2.06569C9.45188 2.06569 11.3108 3.9246 11.3108 6.2147C11.3108 8.50437 9.45188 10.3632 7.16169 10.3632C4.87202 10.3632 3.0132 8.50437 3.0132 6.2147C3.0132 3.92451 4.87211 2.06569 7.16169 2.06569Z" fill="#007D9C"/>
<path fill-rule="evenodd" clip-rule="evenodd" d="M44.8381 0.423584C41.642 0.423584 39.0469 3.01867 39.0469 6.2147C39.0469 9.41073 41.642 12.0053 44.8381 12.0053C48.0336 12.0053 50.6287 9.41082 50.6287 6.2147C50.6287 3.01858 48.0336 0.423584 44.8381 0.423584ZM44.8381 2.06569C47.1277 2.06569 48.9866 3.9246 48.9866 6.2147C48.9866 8.50437 47.1277 10.3632 44.8381 10.3632C42.5479 10.3632 40.689 8.50437 40.689 6.2147C40.689 3.92451 42.5479 2.06569 44.8381 2.06569Z" fill="#007D9C"/>
<path fill-rule="evenodd" clip-rule="evenodd" d="M11.6869 23.7869C11.8226 24.0606 12.104 24.2428 12.422 24.2428L12.7269 24.1836L20.2871 21.1616C21.4508 20.697 22.7728 21.2635 23.238 22.4272C23.7027 23.5903 23.1357 24.9123 21.9725 25.3775L11.988 29.3683C11.0339 29.7498 9.95343 29.4411 9.34201 28.6398C9.12856 28.36 8.76013 28.2473 8.4263 28.36C8.09298 28.4728 7.86854 28.7859 7.86854 29.1379V33.2612C7.86854 33.6783 8.18108 34.0286 8.59493 34.0768L15.2405 34.8442C16.811 35.0254 17.9965 36.3555 17.9965 37.9369V50.7552C17.9965 51.2084 18.3644 51.5762 18.8175 51.5762C19.2708 51.5762 19.6385 51.2084 19.6385 50.7552V37.9369C19.6385 35.5213 17.8279 33.49 15.4287 33.2131L9.51056 32.5295V30.8151C10.4575 31.2502 11.5698 31.3039 12.5972 30.8934L22.5823 26.9025C24.5868 26.1007 25.5639 23.8225 24.7625 21.8175C23.9612 19.8124 21.683 18.8354 19.678 19.6367L12.7615 22.4015L8.78812 15.8982C8.2271 14.9798 7.31241 14.3333 6.25983 14.1105C6.22755 14.104 6.19527 14.0969 6.16238 14.0902C5.0594 13.857 3.90937 14.111 3.00731 14.787C2.10524 15.4636 1.53873 16.4959 1.4533 17.6202C0.970495 23.9729 0.0022324 36.7048 0.0022324 36.7048C0.00051517 36.7255 0 36.7463 0 36.7672C0 39.18 1.80687 41.2096 4.20267 41.4898L10.1279 42.255V50.7551C10.1279 51.2084 10.4957 51.5761 10.9489 51.5761C11.4021 51.5761 11.7699 51.2083 11.7699 50.7551V41.5331C11.7699 41.1199 11.4634 40.7717 11.0539 40.7186L4.39792 39.8598C2.8385 39.6798 1.65885 38.3671 1.64193 36.8006C1.64193 36.7962 3.09025 17.7445 3.09025 17.7445C3.14005 17.0926 3.46847 16.4933 3.9918 16.1013C4.51564 15.7088 5.18236 15.5616 5.82271 15.6968L5.91956 15.7171C6.53047 15.8463 7.06084 16.2218 7.38651 16.7544C8.6285 18.7873 11.1458 22.9079 11.6368 23.712C11.6535 23.7382 11.6699 23.7633 11.6869 23.7869Z" fill="#007D9C"/>
<path fill-rule="evenodd" clip-rule="evenodd" d="M5.1673 24.981L7.80566 29.3003C8.8002 30.9282 10.8244 31.6014 12.5962 30.8931C13.0171 30.7251 13.2224 30.2467 13.0539 29.8263C12.8858 29.4054 12.4074 29.2001 11.987 29.3681C10.9591 29.7793 9.78443 29.3889 9.20693 28.4442L6.56865 24.1249C6.33219 23.7385 5.82638 23.6164 5.44 23.8523C5.05345 24.0889 4.93084 24.5946 5.1673 24.981Z" fill="#007D9C"/>
<path fill-rule="evenodd" clip-rule="evenodd" d="M38.4788 23.6456L30.5288 24.7699C28.3907 25.072 26.9009 27.0535 27.203 29.1915C27.5052 31.329 29.4866 32.8194 31.6246 32.5173L41.4023 31.134C41.7828 31.0804 42.1484 30.972 42.4894 30.8149V32.5292L36.5712 33.2128C34.1721 33.4898 32.3614 35.5211 32.3614 37.9366V50.7549C32.3614 51.2082 32.7292 51.5759 33.1824 51.5759C33.6356 51.5759 34.0034 51.2081 34.0034 50.7549V37.9366C34.0034 36.3553 35.189 35.0251 36.7594 34.844L43.4028 34.0765H43.4012C43.8123 34.0316 44.1313 33.6835 44.1313 33.2609V29.1371C44.1313 28.7851 43.9069 28.4726 43.5736 28.3599C43.2403 28.2465 42.8718 28.3593 42.6579 28.639C42.2983 29.1098 41.7657 29.4245 41.1723 29.5083L31.3946 30.8909C30.1537 31.0666 29.0042 30.2018 28.8291 28.9609C28.6534 27.7205 29.5182 26.5711 30.7585 26.3953L39.09 25.2174L38.9773 25.225L39.6779 24.8321L44.1203 17.5603C44.6885 16.6308 45.729 16.0972 46.8156 16.1793C46.831 16.1804 46.8458 16.1814 46.861 16.1825C48.3247 16.2931 49.4758 17.4787 49.5426 18.9445L50.3576 36.7844C50.3488 38.3575 49.1665 39.6783 47.6016 39.8595L41.0841 40.6122C40.6741 40.6592 40.3632 41.0035 40.3577 41.4162L40.2296 50.7434C40.2236 51.1967 40.5864 51.5694 41.0392 51.5759C41.4925 51.5819 41.8652 51.2191 41.8717 50.7658L41.9894 42.1601L47.7899 41.4906C50.189 41.2136 51.9997 39.1818 51.9997 36.7668C51.9997 36.7542 51.9992 36.7417 51.9986 36.7291C51.9986 36.7291 51.4545 24.8162 51.183 18.8696C51.0779 16.5739 49.276 14.7178 46.9847 14.5453C46.9693 14.5442 46.954 14.5426 46.9393 14.5414C45.2381 14.4133 43.6085 15.2486 42.7191 16.7041L38.4788 23.6456Z" fill="#007D9C"/>
<path fill-rule="evenodd" clip-rule="evenodd" d="M33.7561 2.8867C33.7561 2.23372 33.4967 1.60693 33.0347 1.145C32.5727 0.682972 31.9466 0.423584 31.293 0.423584H19.8382C18.4775 0.423584 17.375 1.52656 17.375 2.8867V13.3217C17.375 13.8581 17.6881 14.3452 18.1763 14.5675C18.6646 14.7897 19.2377 14.706 19.6422 14.3534C20.432 13.6654 21.5449 12.6954 22.165 12.1547C22.315 12.0244 22.5065 11.9527 22.7047 11.9527H31.2929C31.9465 11.9527 32.5727 11.6932 33.0346 11.2313C33.4966 10.7693 33.756 10.1426 33.756 9.48964L33.7561 2.8867ZM19.0171 12.7201V2.8867C19.0171 2.43352 19.3844 2.06569 19.8381 2.06569H31.2929C31.5108 2.06569 31.7198 2.15215 31.8737 2.30653C32.0275 2.46031 32.114 2.66887 32.114 2.8867V9.48964C32.114 9.70747 32.0276 9.91603 31.8737 10.0698C31.7199 10.2241 31.5108 10.3106 31.2929 10.3106H22.7048C22.1098 10.3106 21.5351 10.5257 21.0862 10.9165L19.0171 12.7201Z" fill="#007D9C"/>
<path fill-rule="evenodd" clip-rule="evenodd" d="M21.9069 5.50945H29.3468C29.8 5.50945 30.1678 5.14162 30.1678 4.68844C30.1678 4.23526 29.8 3.86743 29.3468 3.86743H21.9069C21.4538 3.86743 21.0859 4.23526 21.0859 4.68844C21.0859 5.14162 21.4537 5.50945 21.9069 5.50945Z" fill="#007D9C"/>
<path fill-rule="evenodd" clip-rule="evenodd" d="M21.9069 8.50408H25.565C26.0177 8.50408 26.386 8.13625 26.386 7.68307C26.386 7.22981 26.0177 6.86206 25.565 6.86206H21.9069C21.4538 6.86206 21.0859 7.22989 21.0859 7.68307C21.0859 8.13625 21.4537 8.50408 21.9069 8.50408Z" fill="#007D9C"/>
<path fill-rule="evenodd" clip-rule="evenodd" d="M38.9346 31.4836L41.4016 31.1344C42.5593 30.9708 43.5829 30.298 44.1926 29.3008L46.8309 24.9815C47.0674 24.595 46.9448 24.0893 46.5583 23.8528C46.1718 23.6169 45.6661 23.739 45.4296 24.1254L42.7914 28.4447C42.4378 29.0233 41.8433 29.4136 41.1717 29.5088L38.7047 29.8575C38.2558 29.921 37.9428 30.337 38.0062 30.7858C38.0698 31.234 38.4858 31.5471 38.9346 31.4836Z" fill="#007D9C"/>
</g>
</svg>
