<svg width="16" height="16" viewBox="0 0 16 16" fill="none" xmlns="http://www.w3.org/2000/svg">
<path d="M11.375 0C12.5353 0 13.6481 0.460936 14.4686 1.28141C15.2891 2.10188 15.75 3.21468 15.75 4.375V11.375C15.75 12.5353 15.2891 13.6481 14.4686 14.4686C13.6481 15.2891 12.5353 15.75 11.375 15.75H4.375C3.21468 15.75 2.10188 15.2891 1.28141 14.4686C0.460936 13.6481 0 12.5353 0 11.375V4.375C0 3.21468 0.460936 2.10188 1.28141 1.28141C2.10188 0.460936 3.21468 0 4.375 0H11.375ZM7.875 4.375C6.97704 4.375 6.11343 4.72013 5.46279 5.33901C4.81215 5.95789 4.42427 6.80316 4.37937 7.7L4.375 7.875C4.375 8.56723 4.58027 9.24392 4.96486 9.8195C5.34944 10.3951 5.89607 10.8437 6.53561 11.1086C7.17515 11.3735 7.87888 11.4428 8.55782 11.3077C9.23675 11.1727 9.86039 10.8394 10.3499 10.3499C10.8394 9.86039 11.1727 9.23675 11.3077 8.55782C11.4428 7.87888 11.3735 7.17515 11.1086 6.53561C10.8437 5.89607 10.3951 5.34944 9.8195 4.96486C9.24392 4.58027 8.56723 4.375 7.875 4.375ZM11.8125 3.0625C11.5982 3.06253 11.3913 3.14121 11.2312 3.28363C11.071 3.42604 10.9687 3.62228 10.9436 3.83512L10.9375 3.94625C10.9377 4.16927 11.0231 4.38378 11.1762 4.54595C11.3293 4.70812 11.5386 4.80571 11.7612 4.81878C11.9839 4.83185 12.2031 4.75941 12.3741 4.61627C12.5451 4.47313 12.655 4.27008 12.6814 4.04862L12.6875 3.9375C12.6875 3.70544 12.5953 3.48288 12.4312 3.31878C12.2671 3.15469 12.0446 3.0625 11.8125 3.0625Z" fill="#007D9C"/>
</svg>
