<svg width="71" height="71" viewBox="0 0 71 71" fill="none" xmlns="http://www.w3.org/2000/svg">
<path d="M25.6785 37.63H30.826V49.6112C30.826 51.3862 33.0152 52.2146 34.1985 50.8833L46.801 36.565C47.8956 35.3225 47.0081 33.37 45.3514 33.37H40.2039V21.3888C40.2039 19.6138 38.0147 18.7854 36.8314 20.1167L24.2289 34.435C23.1343 35.6775 24.0218 37.63 25.6785 37.63Z" stroke="#007D9C" stroke-width="2.5" stroke-miterlimit="10" stroke-linecap="round" stroke-linejoin="round"/>
<path d="M35.4115 65.0833C51.7499 65.0833 64.9948 51.8384 64.9948 35.5C64.9948 19.1616 51.7499 5.91667 35.4115 5.91667C19.073 5.91667 5.82812 19.1616 5.82812 35.5C5.82812 51.8384 19.073 65.0833 35.4115 65.0833Z" stroke="#007D9C" stroke-width="2.5" stroke-miterlimit="10" stroke-linecap="round" stroke-linejoin="round"/>
</svg>
