<svg width="71" height="71" viewBox="0 0 71 71" fill="none" xmlns="http://www.w3.org/2000/svg">
<path d="M38.2204 6.68586L57.4791 17.0696C59.7274 18.2825 59.7274 21.7438 57.4791 22.9567L38.2204 33.3404C36.5045 34.2575 34.4929 34.2575 32.777 33.3404L13.5183 22.9567C11.2699 21.7438 11.2699 18.2825 13.5183 17.0696L32.777 6.68586C34.4929 5.76878 36.5045 5.76878 38.2204 6.68586Z" stroke="#007D9C" stroke-width="2.5" stroke-linecap="round" stroke-linejoin="round"/>
<path d="M10.6809 29.968L28.5788 38.9318C30.7976 40.056 32.2176 42.3339 32.2176 44.8189V61.7405C32.2176 64.196 29.6438 65.7639 27.4546 64.6693L9.55672 55.7055C7.33797 54.5814 5.91797 52.3035 5.91797 49.8185V32.8968C5.91797 30.4414 8.49172 28.8735 10.6809 29.968Z" stroke="#007D9C" stroke-width="2.5" stroke-linecap="round" stroke-linejoin="round"/>
<path d="M60.3218 29.968L42.4239 38.9318C40.2052 40.056 38.7852 42.3339 38.7852 44.8189V61.7405C38.7852 64.196 41.3589 65.7639 43.5481 64.6693L61.446 55.7055C63.6647 54.5814 65.0847 52.3035 65.0847 49.8185V32.8968C65.0847 30.4414 62.511 28.8735 60.3218 29.968Z" stroke="#007D9C" stroke-width="2.5" stroke-linecap="round" stroke-linejoin="round"/>
</svg>
