<svg width="12" height="12" viewBox="0 0 12 12" fill="white" xmlns="http://www.w3.org/2000/svg">
    <path d="M1.34018 5.36995C1.60418 5.40995 1.85618 5.35395 2.09618 5.20195C2.29618 5.06595 2.47618 4.87795 2.63618 4.63795C2.76418 4.42995 2.86018 4.22195 2.92418 4.01395C2.98818 3.80595 3.00418 3.54995 2.97218 3.24595C2.93218 2.89395 2.82818 2.59795 2.66018 2.35795C2.46018 2.05395 2.18418 1.86195 1.83218 1.78195C1.58418 1.72595 1.33418 1.74195 1.08218 1.82995C0.830182 1.91795 0.616182 2.07795 0.440182 2.30995C0.240182 2.55795 0.108182 2.86195 0.0441818 3.22195C-0.0278182 3.63795 -0.0118182 4.00995 0.0921818 4.33795C0.180182 4.63395 0.336182 4.86995 0.560182 5.04595C0.784182 5.22195 1.04418 5.32995 1.34018 5.36995ZM4.88018 3.86995C5.28818 3.94195 5.65218 3.81395 5.97218 3.48595C6.21218 3.23795 6.39618 2.92195 6.52418 2.53795C6.61218 2.27395 6.66418 2.00995 6.68018 1.74595C6.69618 1.37795 6.63218 1.05795 6.48818 0.785949C6.30418 0.441949 6.00018 0.193949 5.57618 0.0419493C5.41618 -0.0140514 5.20818 -0.0140514 4.95218 0.0419493C4.64818 0.113949 4.38018 0.253949 4.14818 0.461949C3.86018 0.717949 3.67218 1.05795 3.58418 1.48195C3.48818 1.92995 3.48818 2.32995 3.58418 2.68195C3.67218 3.00195 3.83018 3.26395 4.05818 3.46795C4.28618 3.67195 4.56018 3.80595 4.88018 3.86995ZM11.2282 5.06995C10.9082 4.90995 10.5722 4.88195 10.2202 4.98595C9.94018 5.08195 9.67618 5.25395 9.42818 5.50195C9.22018 5.70995 9.07218 5.91795 8.98418 6.12595C8.89618 6.33395 8.84018 6.55795 8.81618 6.79795C8.78418 7.09395 8.80818 7.35395 8.88818 7.57795C8.97618 7.84995 9.13618 8.05395 9.36818 8.18995C9.63218 8.34195 9.90618 8.41795 10.1902 8.41795C10.4742 8.41795 10.7442 8.32995 11.0002 8.15395C11.2802 7.96995 11.5202 7.68995 11.7202 7.31395C11.8962 6.98595 11.9842 6.66595 11.9842 6.35395C11.9922 6.06595 11.9242 5.80795 11.7802 5.57995C11.6362 5.35195 11.4522 5.18195 11.2282 5.06995ZM7.54418 4.80595C7.83218 4.95795 8.12818 5.02595 8.43218 5.00995C8.73618 4.99395 9.02418 4.88595 9.29618 4.68595C9.59218 4.46995 9.84018 4.15795 10.0402 3.74995C10.1922 3.45395 10.2642 3.15395 10.2562 2.84995C10.2562 2.60195 10.2002 2.36195 10.0882 2.12995C10.0002 1.93795 9.88418 1.76995 9.74018 1.62595C9.61218 1.49795 9.49218 1.41395 9.38018 1.37395C8.95618 1.22995 8.56818 1.23395 8.21618 1.38595C7.92818 1.51395 7.67618 1.72595 7.46018 2.02195C7.30018 2.23795 7.17618 2.47395 7.08818 2.72995C6.95218 3.11395 6.90018 3.47795 6.93218 3.82195C6.97218 4.27795 7.17618 4.60595 7.54418 4.80595ZM7.76018 7.28995C7.64018 6.77795 7.46818 6.33795 7.24418 5.96995C6.92418 5.44195 6.51218 5.08595 6.00818 4.90195C5.60018 4.74995 5.21618 4.68595 4.85618 4.70995C4.55218 4.73395 4.25618 4.82595 3.96818 4.98595C3.75218 5.10595 3.51218 5.28595 3.24818 5.52595C2.90418 5.83795 2.50818 6.08595 2.06018 6.26995C1.47618 6.50195 1.01418 6.79795 0.674182 7.15795C0.334182 7.51795 0.146182 7.90795 0.110182 8.32795C0.0741818 8.74795 0.200182 9.17395 0.488182 9.60595C0.680182 9.89395 0.908182 10.1059 1.17218 10.2419C1.38818 10.3459 1.64018 10.4059 1.92818 10.4219C2.10418 10.4299 2.37218 10.4179 2.73218 10.3859C3.04418 10.3619 3.27218 10.3499 3.41618 10.3499C3.66418 10.3499 3.88018 10.3859 4.06418 10.4579C4.28018 10.5379 4.51218 10.6499 4.76018 10.7939C4.91218 10.8819 5.13218 11.0219 5.42018 11.2139C5.82818 11.4859 6.13218 11.6699 6.33218 11.7659C6.66018 11.9259 6.96018 11.9979 7.23218 11.9819C7.55218 11.9579 7.86418 11.8099 8.16818 11.5379C8.59218 11.1459 8.77218 10.6379 8.70818 10.0139C8.66818 9.56595 8.50818 9.08595 8.22818 8.57395C8.01218 8.16595 7.85618 7.73795 7.76018 7.28995Z" fill="white" />
</svg>