<svg width="71" height="67" viewBox="0 0 71 67" fill="none" xmlns="http://www.w3.org/2000/svg">
<path d="M66.3821 7.21778L62.3221 4.97778C62.0888 4.83778 61.8321 4.80278 61.5521 4.87278C61.2721 4.94278 61.0621 5.09445 60.9221 5.32778C60.7821 5.56112 60.7588 5.81778 60.8521 6.09778C60.9454 6.37778 61.1088 6.58778 61.3421 6.72778L65.3321 8.96778C66.2654 9.48111 66.9771 10.2278 67.4671 11.2078C67.9571 12.1878 68.1088 13.1911 67.9221 14.2178C67.6421 15.8511 67.1054 17.5194 66.3121 19.2228C65.5188 20.9261 64.6088 22.3378 63.5821 23.4578C62.5088 24.6244 61.4821 25.2078 60.5021 25.2078C60.1754 25.2078 59.8021 25.0561 59.3821 24.7528C58.9621 24.4494 58.5421 24.0178 58.1221 23.4578C57.0954 22.1978 56.0921 20.4944 55.1121 18.3478C54.1788 16.3878 53.3038 14.1828 52.4871 11.7328C51.6704 9.28278 51.0054 6.84445 50.4921 4.41778C50.3521 3.62445 50.6088 2.97112 51.2621 2.45778C51.5888 2.22445 51.9504 2.09612 52.3471 2.07278C52.7438 2.04945 53.1054 2.13111 53.4321 2.31778L57.7021 4.69778C57.9354 4.83778 58.1921 4.87278 58.4721 4.80278C58.7521 4.73278 58.9621 4.58112 59.1021 4.34778C59.2421 4.11445 59.2654 3.85778 59.1721 3.57778C59.0788 3.29778 58.9154 3.08778 58.6821 2.94778L54.4121 0.49778C53.7121 0.124451 52.9654 -0.038887 52.1721 0.00778198C51.3788 0.054451 50.6671 0.311111 50.0371 0.777779C49.4071 1.24445 48.9521 1.80445 48.6721 2.45778C48.3921 3.11111 48.2988 3.81112 48.3921 4.55778C46.5254 3.62445 44.4488 3.05278 42.1621 2.84278C39.8754 2.63278 37.4954 2.80778 35.0221 3.36778C32.5488 2.80778 30.1804 2.63278 27.9171 2.84278C25.6538 3.05278 23.5654 3.62445 21.6521 4.55778C21.7454 3.81112 21.6521 3.11111 21.3721 2.45778C21.0921 1.80445 20.6488 1.24445 20.0421 0.777779C19.4354 0.311111 18.7354 0.054451 17.9421 0.00778198C17.1488 -0.038887 16.4021 0.124451 15.7021 0.49778L8.4221 4.55778C8.18877 4.69778 8.02544 4.90778 7.93211 5.18778C7.83877 5.46778 7.86211 5.72445 8.0021 5.95778C8.14211 6.19112 8.35211 6.35445 8.6321 6.44778C8.91211 6.54111 9.16877 6.51778 9.40211 6.37778L16.6821 2.31778C17.3821 1.89778 18.0821 1.94445 18.7821 2.45778C19.1088 2.64445 19.3421 2.92445 19.4821 3.29778C19.6221 3.67112 19.6454 4.04445 19.5521 4.41778C19.0388 6.79778 18.3738 9.21278 17.5571 11.6628C16.7404 14.1128 15.8888 16.3411 15.0021 18.3478C13.9754 20.4944 12.9721 22.1978 11.9921 23.4578C11.0588 24.6244 10.2421 25.2078 9.54211 25.2078C8.56211 25.2078 7.53544 24.6244 6.46211 23.4578C5.43544 22.3378 4.52544 20.9261 3.73211 19.2228C2.93877 17.5194 2.40211 15.8511 2.12211 14.2178C1.98211 13.1444 2.14544 12.1294 2.61211 11.1728C3.07877 10.2161 3.77877 9.48111 4.71211 8.96778L5.97211 8.26778C6.20544 8.12778 6.36877 7.91778 6.46211 7.63778C6.55544 7.35778 6.5321 7.10112 6.39211 6.86778C6.25211 6.63445 6.04211 6.48278 5.7621 6.41278C5.48211 6.34278 5.22544 6.37778 4.99211 6.51778L3.73211 7.21778C2.37877 7.96445 1.37544 9.01445 0.722105 10.3678C0.0687719 11.7211 -0.141228 13.1211 0.0921053 14.5678C0.278772 15.9211 0.675439 17.3211 1.28211 18.7678C1.88877 20.2144 2.58877 21.5678 3.38211 22.8278C4.31544 24.2278 5.31877 25.3128 6.39211 26.0828C7.46544 26.8528 8.51544 27.2378 9.54211 27.2378H9.82211C9.35544 30.3644 9.33211 32.8844 9.75211 34.7978C9.79877 35.0311 9.91544 35.2294 10.1021 35.3928C10.2888 35.5561 10.4988 35.6378 10.7321 35.6378L10.9421 35.5678C11.2221 35.4744 11.4321 35.3228 11.5721 35.1128C11.7121 34.9028 11.7588 34.6578 11.7121 34.3778C11.5254 33.4911 11.4554 32.3361 11.5021 30.9128C11.5488 29.4894 11.7354 27.9378 12.0621 26.2578C13.6954 24.9511 15.2938 22.6061 16.8571 19.2228C18.4204 15.8394 19.8088 11.8611 21.0221 7.28778C22.7954 6.07445 24.8721 5.30445 27.2521 4.97778C29.6321 4.65112 32.1521 4.79111 34.8121 5.39778H35.2321C37.8921 4.79111 40.4121 4.65112 42.7921 4.97778C45.1721 5.30445 47.2488 6.07445 49.0221 7.28778C50.2354 11.8611 51.6238 15.8394 53.1871 19.2228C54.7504 22.6061 56.3488 24.9511 57.9821 26.2578C58.3088 27.9378 58.4954 29.4894 58.5421 30.9128C58.5888 32.3361 58.5188 33.4911 58.3321 34.3778C57.8654 36.5244 56.4421 39.0561 54.0621 41.9728C51.6821 44.8894 48.9754 47.4211 45.9421 49.5678C45.7088 49.7544 45.5688 49.9878 45.5221 50.2678C45.4754 50.5478 45.5571 50.8161 45.7671 51.0728C45.9771 51.3294 46.2454 51.4578 46.5721 51.4578C46.8054 51.4578 46.9921 51.3878 47.1321 51.2478C50.3521 48.9611 53.2338 46.2428 55.7771 43.0928C58.3204 39.9428 59.8254 37.1778 60.2921 34.7978C60.7121 33.0711 60.6888 30.5511 60.2221 27.2378H60.5021C61.5288 27.2378 62.5788 26.8528 63.6521 26.0828C64.7254 25.3128 65.7288 24.2278 66.6621 22.8278C67.4554 21.6144 68.1438 20.2844 68.7271 18.8378C69.3104 17.3911 69.7188 15.9561 69.9521 14.5328C70.1854 13.1094 69.9754 11.7211 69.3221 10.3678C68.6688 9.01445 67.6888 7.96445 66.3821 7.21778ZM41.4621 22.1978C41.2754 22.3844 41.1821 22.6178 41.1821 22.8978C41.1821 23.1778 41.2871 23.4111 41.4971 23.5978C41.7071 23.7844 41.9521 23.8778 42.2321 23.8778C42.5121 23.8778 42.7454 23.7844 42.9321 23.5978C43.3521 23.1778 44.0638 22.9678 45.0671 22.9678C46.0704 22.9678 46.7821 23.1778 47.2021 23.5978C47.4354 23.8311 47.6804 23.9478 47.9371 23.9478C48.1938 23.9478 48.4271 23.8428 48.6371 23.6328C48.8471 23.4228 48.9521 23.1778 48.9521 22.8978C48.9521 22.6178 48.8588 22.3844 48.6721 22.1978C47.7854 21.3111 46.5838 20.8678 45.0671 20.8678C43.5504 20.8678 42.3488 21.3111 41.4621 22.1978ZM21.3721 22.1978C21.1854 22.3844 21.0921 22.6178 21.0921 22.8978C21.0921 23.1778 21.1971 23.4111 21.4071 23.5978C21.6171 23.7844 21.8621 23.8778 22.1421 23.8778C22.4221 23.8778 22.6554 23.7844 22.8421 23.5978C23.2621 23.1778 23.9738 22.9678 24.9771 22.9678C25.9804 22.9678 26.6921 23.1778 27.1121 23.5978C27.3454 23.8311 27.5904 23.9478 27.8471 23.9478C28.1038 23.9478 28.3371 23.8428 28.5471 23.6328C28.7571 23.4228 28.8621 23.1778 28.8621 22.8978C28.8621 22.6178 28.7688 22.3844 28.5821 22.1978C27.6954 21.3111 26.4821 20.8678 24.9421 20.8678C24.2421 20.8678 23.5771 20.9844 22.9471 21.2178C22.3171 21.4511 21.7921 21.7778 21.3721 22.1978ZM49.1621 14.2178C48.6488 13.6578 47.9604 13.2261 47.0971 12.9228C46.2338 12.6194 45.3121 12.4678 44.3321 12.4678C43.3521 12.4678 42.4304 12.6194 41.5671 12.9228C40.7038 13.2261 39.9921 13.6578 39.4321 14.2178C39.2454 14.4044 39.1521 14.6378 39.1521 14.9178C39.1521 15.1978 39.2571 15.4311 39.4671 15.6178C39.6771 15.8044 39.9221 15.8978 40.2021 15.8978C40.4821 15.8978 40.7154 15.8044 40.9021 15.6178C41.2288 15.2911 41.7071 15.0228 42.3371 14.8128C42.9671 14.6028 43.6321 14.4978 44.3321 14.4978C45.0321 14.4978 45.6971 14.6028 46.3271 14.8128C46.9571 15.0228 47.4354 15.2911 47.7621 15.6178C47.9954 15.8511 48.2288 15.9678 48.4621 15.9678C48.6954 15.9678 48.9288 15.8628 49.1621 15.6528C49.3954 15.4428 49.5121 15.1978 49.5121 14.9178C49.5121 14.6378 49.3954 14.4044 49.1621 14.2178ZM52.5221 31.6478C52.6154 31.3678 52.5921 31.1111 52.4521 30.8778C52.3121 30.6444 52.1021 30.4811 51.8221 30.3878C51.5421 30.2944 51.2854 30.3178 51.0521 30.4578C50.8188 30.5978 50.6554 30.8078 50.5621 31.0878C49.9088 33.6078 48.9754 35.6378 47.7621 37.1778C47.0154 38.2044 46.2221 38.9044 45.3821 39.2778C43.9821 40.0244 41.9054 40.2111 39.1521 39.8378C38.4521 39.6978 37.5188 39.5111 36.3521 39.2778L36.0721 39.2078V34.1678C36.8654 34.0278 37.7288 33.7944 38.6621 33.4678C39.6421 33.0944 40.2721 32.7678 40.5521 32.4878C41.3454 31.6944 41.7421 30.6444 41.7421 29.3378C41.7421 28.0311 41.3454 26.9811 40.5521 26.1878C40.2721 25.9078 39.7821 25.6744 39.0821 25.4878C38.0554 25.2078 36.7021 25.0678 35.0221 25.0678C33.3421 25.0678 32.0121 25.2078 31.0321 25.4878C30.2854 25.6744 29.7721 25.9078 29.4921 26.1878C28.7454 26.9344 28.3721 27.9728 28.3721 29.3028C28.3721 30.6328 28.7454 31.6944 29.4921 32.4878C29.7721 32.7678 30.4254 33.0944 31.4521 33.4678C32.3388 33.7944 33.1788 34.0278 33.9721 34.1678V39.2078C32.3854 39.6278 30.8688 39.8844 29.4221 39.9778C27.3221 40.1178 25.7121 39.8844 24.5921 39.2778C23.7988 38.8578 23.0288 38.1578 22.2821 37.1778C21.0688 35.6378 20.1354 33.6078 19.4821 31.0878C19.3888 30.8078 19.2254 30.5978 18.9921 30.4578C18.7588 30.3178 18.5021 30.2944 18.2221 30.3878C17.9421 30.4811 17.7321 30.6444 17.5921 30.8778C17.4521 31.1111 17.4054 31.3678 17.4521 31.6478C17.9654 33.4678 18.5954 35.0544 19.3421 36.4078C20.5088 38.6011 21.8854 40.1411 23.4721 41.0278C24.0321 41.8211 24.5221 42.7078 24.9421 43.6878C25.6421 45.4144 25.9921 47.1644 25.9921 48.9378V50.8978C23.5188 49.3578 21.1154 47.4211 18.7821 45.0878C16.4488 42.7544 14.6288 40.4444 13.3221 38.1578C13.1354 37.8778 12.9138 37.7028 12.6571 37.6328C12.4004 37.5628 12.1554 37.5978 11.9221 37.7378C11.6888 37.8778 11.5254 38.0878 11.4321 38.3678C11.3388 38.6478 11.3621 38.9044 11.5021 39.1378C13.0421 41.7978 15.1304 44.4111 17.7671 46.9778C20.4038 49.5444 23.1454 51.6211 25.9921 53.2078V59.9978C25.9921 61.9111 26.9254 63.5211 28.7921 64.8278C30.5188 66.0411 32.5954 66.6478 35.0221 66.6478C37.4488 66.6478 39.5488 66.0411 41.3221 64.8278C43.1421 63.5211 44.0521 61.9111 44.0521 59.9978V48.9378C44.0521 47.1644 44.4021 45.3911 45.1021 43.6178C45.5688 42.5444 46.0588 41.6811 46.5721 41.0278C48.2054 40.1411 49.5821 38.6011 50.7021 36.4078C51.4488 34.9611 52.0554 33.3744 52.5221 31.6478ZM30.8921 31.0178C30.5188 30.6444 30.3438 30.0844 30.3671 29.3378C30.3904 28.5911 30.5888 28.0311 30.9621 27.6578C31.1488 27.5178 31.5688 27.4011 32.2221 27.3078C33.0621 27.1678 33.9954 27.0978 35.0221 27.0978C36.0488 27.0978 36.9821 27.1678 37.8221 27.3078C38.5221 27.4011 38.9654 27.5178 39.1521 27.6578C39.5254 28.0311 39.7121 28.5911 39.7121 29.3378C39.7121 30.0844 39.5254 30.6444 39.1521 31.0178C38.8721 31.2044 38.1954 31.4611 37.1221 31.7878C36.0488 32.1144 35.3488 32.2778 35.0221 32.2778C34.6954 32.2778 33.9954 32.1144 32.9221 31.7878C31.8488 31.4611 31.1721 31.2044 30.8921 31.0178ZM42.0221 60.0678C42.0221 60.8611 41.7071 61.6078 41.0771 62.3078C40.4471 63.0078 39.5954 63.5678 38.5221 63.9878C37.4488 64.4078 36.2821 64.6178 35.0221 64.6178C33.7621 64.6178 32.5954 64.4078 31.5221 63.9878C30.4488 63.5678 29.5971 63.0078 28.9671 62.3078C28.3371 61.6078 28.0221 60.8611 28.0221 60.0678V48.9378C28.0221 48.1444 28.4771 47.4678 29.3871 46.9078C30.2971 46.3478 31.3821 46.0678 32.6421 46.0678C32.9688 46.0678 33.4121 46.1144 33.9721 46.2078V56.5678C33.9721 56.8478 34.0771 57.0811 34.2871 57.2678C34.4971 57.4544 34.7421 57.5478 35.0221 57.5478C35.3021 57.5478 35.5471 57.4544 35.7571 57.2678C35.9671 57.0811 36.0721 56.8478 36.0721 56.5678V46.2078C36.6321 46.1144 37.0754 46.0678 37.4021 46.0678C38.6621 46.0678 39.7471 46.3478 40.6571 46.9078C41.5671 47.4678 42.0221 48.1444 42.0221 48.9378V60.0678ZM42.3721 45.6478C41.7654 45.1344 41.0421 44.7378 40.2021 44.4578C39.3621 44.1778 38.4521 44.0378 37.4721 44.0378C36.4921 44.0378 35.6754 44.1544 35.0221 44.3878C34.3688 44.1544 33.5754 44.0378 32.6421 44.0378C30.7288 44.0378 29.0721 44.5744 27.6721 45.6478C27.4388 44.3878 27.0188 43.1511 26.4121 41.9378C27.2521 42.0311 27.9054 42.0778 28.3721 42.0778C30.5188 42.0778 32.7354 41.7278 35.0221 41.0278C37.4954 41.7278 39.7354 42.0778 41.7421 42.0778C42.2088 42.0778 42.8621 42.0311 43.7021 41.9378C43.1421 43.0578 42.6988 44.2944 42.3721 45.6478ZM29.8421 15.9678C30.1221 15.9678 30.3671 15.8628 30.5771 15.6528C30.7871 15.4428 30.8921 15.1978 30.8921 14.9178C30.8921 14.6378 30.7988 14.4044 30.6121 14.2178C29.4454 13.0511 27.8238 12.4678 25.7471 12.4678C23.6704 12.4678 22.0488 13.0511 20.8821 14.2178C20.6954 14.4044 20.6021 14.6378 20.6021 14.9178C20.6021 15.1978 20.6954 15.4311 20.8821 15.6178C21.0688 15.8044 21.3021 15.8978 21.5821 15.8978C21.8621 15.8978 22.0954 15.8044 22.2821 15.6178C22.6088 15.2911 23.0871 15.0228 23.7171 14.8128C24.3471 14.6028 25.0121 14.4978 25.7121 14.4978C26.4121 14.4978 27.0771 14.6028 27.7071 14.8128C28.3371 15.0228 28.8154 15.2911 29.1421 15.6178C29.3754 15.8511 29.6088 15.9678 29.8421 15.9678Z" fill="#007D9C"/>
</svg>
