<svg width="76" height="70" viewBox="0 0 76 70" fill="none" xmlns="http://www.w3.org/2000/svg">
<rect width="75.6811" height="69.1001" rx="14.2588" fill="white"/>
<path opacity="0.4" d="M37.485 38.2861L31.9556 43.8154C31.3469 43.2743 30.755 42.7163 30.1801 42.1414C28.4384 40.3828 26.8659 38.5397 25.4624 36.612C24.0758 34.6844 22.9598 32.7567 22.1481 30.8459C21.3365 28.9182 20.9307 27.0751 20.9307 25.3165C20.9307 24.1667 21.1336 23.0676 21.5394 22.053C21.9452 21.0215 22.5878 20.0746 23.484 19.2291C24.5662 18.1638 25.7499 17.6396 27.0011 17.6396C27.4746 17.6396 27.9481 17.7411 28.3708 17.944C28.8105 18.1469 29.1994 18.4513 29.5037 18.8909L33.4267 24.4203C33.7311 24.8431 33.9509 25.232 34.1031 25.604C34.2553 25.9591 34.3398 26.3142 34.3398 26.6355C34.3398 27.0413 34.2215 27.4471 33.9847 27.836C33.7649 28.2249 33.4436 28.6308 33.0378 29.0366L31.7527 30.3724C31.5667 30.5584 31.4821 30.7783 31.4821 31.0488C31.4821 31.1841 31.4991 31.3025 31.5329 31.4377C31.5836 31.573 31.6343 31.6745 31.6681 31.7759C31.9725 32.3339 32.4967 33.061 33.2407 33.9403C34.0016 34.8196 34.8133 35.7158 35.6926 36.612C36.3013 37.2039 36.8932 37.7788 37.485 38.2861Z" fill="#003337"/>
<path d="M54.6988 45.2528C54.6988 45.7263 54.6143 46.2166 54.4452 46.6901C54.3944 46.8254 54.3437 46.9607 54.2761 47.0959C53.9886 47.7047 53.6166 48.2796 53.1262 48.8207C52.2977 49.7338 51.3846 50.3933 50.3531 50.816C50.3362 50.816 50.3193 50.8329 50.3024 50.8329C49.3047 51.2387 48.2225 51.4586 47.0558 51.4586C45.331 51.4586 43.4879 51.0527 41.5433 50.2242C39.5987 49.3956 37.6541 48.2796 35.7264 46.8761C35.067 46.3857 34.4075 45.8954 33.7819 45.3712L39.3112 39.8418C39.7847 40.1969 40.2074 40.4674 40.5625 40.6534C40.6471 40.6873 40.7485 40.738 40.8669 40.7887C41.0022 40.8394 41.1375 40.8563 41.2896 40.8563C41.5771 40.8563 41.7969 40.7549 41.9829 40.5689L43.268 39.3007C43.6908 38.8779 44.0966 38.5567 44.4855 38.3538C44.8744 38.117 45.2634 37.9987 45.6861 37.9987C46.0074 37.9987 46.3456 38.0663 46.7176 38.2185C47.0896 38.3707 47.4785 38.5905 47.9012 38.8779L53.4982 42.8517C53.9379 43.156 54.2423 43.5111 54.4283 43.9339C54.5974 44.3566 54.6988 44.7793 54.6988 45.2528Z" fill="#003337"/>
</svg>
