<svg width="76" height="76" viewBox="0 0 76 76" fill="none" xmlns="http://www.w3.org/2000/svg">
<rect x="0.5" y="0.5" width="75" height="75" rx="37.5" stroke="black" stroke-opacity="0.1"/>
<path d="M40.5396 35.46C40.6862 35.6066 40.8662 35.68 41.0796 35.68C41.2929 35.68 41.4729 35.6066 41.6196 35.46L45.4396 31.64V33.2C45.4396 33.4133 45.5162 33.5966 45.6696 33.75C45.8229 33.9033 46.0062 33.98 46.2196 33.98C46.4329 33.98 46.6129 33.9033 46.7596 33.75C46.9062 33.5966 46.9796 33.4133 46.9796 33.2V29.8C46.9796 29.5866 46.9062 29.4033 46.7596 29.25C46.6129 29.0966 46.4329 29.02 46.2196 29.02H42.7996C42.5862 29.02 42.4029 29.0933 42.2496 29.24C42.0962 29.3866 42.0196 29.57 42.0196 29.79C42.0196 30.01 42.0929 30.1933 42.2396 30.34C42.3862 30.4866 42.5729 30.56 42.7996 30.56H44.3596L40.5396 34.38C40.3929 34.5266 40.3196 34.7066 40.3196 34.92C40.3196 35.1333 40.3929 35.3133 40.5396 35.46ZM46.8796 41.18L44.1596 39.56C43.7329 39.3066 43.2729 39.1733 42.7796 39.16C42.2862 39.1466 41.8196 39.25 41.3796 39.47C40.9396 39.69 40.5796 40.0066 40.2996 40.42L39.5196 41.6C38.3996 41.0533 37.3996 40.34 36.5196 39.46C35.6396 38.58 34.9329 37.58 34.3996 36.46L35.5596 35.68C35.9729 35.4 36.2929 35.0433 36.5196 34.61C36.7462 34.1766 36.8529 33.7133 36.8396 33.22C36.8262 32.7266 36.6929 32.2666 36.4396 31.84L34.8396 29.12C34.5862 28.7066 34.2329 28.4 33.7796 28.2C33.3262 28 32.8596 27.9466 32.3796 28.04C31.6329 28.1866 30.9496 28.4766 30.3296 28.91C29.7096 29.3433 29.2029 29.88 28.8096 30.52C28.4162 31.16 28.1662 31.8466 28.0596 32.58C27.9529 33.3133 27.9996 34.0333 28.1996 34.74C28.7862 36.8466 29.7062 38.7866 30.9596 40.56C32.1996 42.3066 33.7029 43.8033 35.4696 45.05C37.2362 46.2966 39.1662 47.2133 41.2596 47.8C41.9662 48 42.6896 48.0466 43.4296 47.94C44.1696 47.8333 44.8462 47.58 45.4596 47.18C46.1129 46.7933 46.6562 46.29 47.0896 45.67C47.5229 45.05 47.8129 44.3666 47.9596 43.62C48.0529 43.14 47.9996 42.6766 47.7996 42.23C47.5996 41.7833 47.2929 41.4333 46.8796 41.18ZM46.4396 43.32C46.3462 43.84 46.1429 44.3233 45.8296 44.77C45.5162 45.2166 45.1296 45.5833 44.6696 45.87C44.2096 46.1566 43.7196 46.3366 43.1996 46.41C42.6796 46.4833 42.1662 46.4533 41.6596 46.32C39.7396 45.7866 37.9696 44.9466 36.3496 43.8C34.7296 42.6533 33.3462 41.27 32.1996 39.65C31.0529 38.03 30.2129 36.26 29.6796 34.34C29.5462 33.8333 29.5162 33.32 29.5896 32.8C29.6629 32.28 29.8429 31.79 30.1296 31.33C30.4162 30.87 30.7796 30.4833 31.2196 30.17C31.6596 29.8566 32.1529 29.6466 32.6996 29.54H32.8596C32.9929 29.54 33.1196 29.5733 33.2396 29.64C33.3596 29.7066 33.4529 29.7933 33.5196 29.9L35.1196 32.62C35.2929 32.9133 35.3429 33.2366 35.2696 33.59C35.1962 33.9433 35.0129 34.2133 34.7196 34.4L33.0196 35.54C32.8596 35.6333 32.7529 35.77 32.6996 35.95C32.6462 36.13 32.6529 36.3066 32.7196 36.48C33.3729 38.0133 34.2829 39.3666 35.4496 40.54C36.6162 41.7133 37.9662 42.6266 39.4996 43.28C39.6729 43.3466 39.8462 43.3533 40.0196 43.3C40.1929 43.2466 40.3329 43.1466 40.4396 43L41.5796 41.28C41.7796 40.9866 42.0562 40.8033 42.4096 40.73C42.7629 40.6566 43.0862 40.7066 43.3796 40.88L46.0996 42.5C46.2329 42.58 46.3329 42.6966 46.3996 42.85C46.4662 43.0033 46.4796 43.16 46.4396 43.32Z" fill="#007D9C"/>
</svg>
