<svg width="68" height="68" viewBox="0 0 68 68" fill="none" xmlns="http://www.w3.org/2000/svg">
<path d="M48.0547 17.4817C53.7214 21.42 57.6314 27.6817 58.4247 34.9067" stroke="#007D9C" stroke-width="2.5" stroke-linecap="round" stroke-linejoin="round"/>
<path d="M9.88672 35.0483C10.6234 27.8516 14.4767 21.59 20.0867 17.6233" stroke="#007D9C" stroke-width="2.5" stroke-linecap="round" stroke-linejoin="round"/>
<path d="M23.2031 59.3301C26.4898 61.0017 30.2298 61.9367 34.1681 61.9367C37.9648 61.9367 41.5348 61.0867 44.7365 59.5284" stroke="#007D9C" stroke-width="2.5" stroke-linecap="round" stroke-linejoin="round"/>
<path d="M34.1696 21.8166C38.5198 21.8166 42.0463 18.2901 42.0463 13.9399C42.0463 9.58974 38.5198 6.06323 34.1696 6.06323C29.8195 6.06323 26.293 9.58974 26.293 13.9399C26.293 18.2901 29.8195 21.8166 34.1696 21.8166Z" stroke="#007D9C" stroke-width="2.5" stroke-linecap="round" stroke-linejoin="round"/>
<path d="M13.6853 56.4401C18.0354 56.4401 21.5619 52.9136 21.5619 48.5634C21.5619 44.2133 18.0354 40.6868 13.6853 40.6868C9.3351 40.6868 5.80859 44.2133 5.80859 48.5634C5.80859 52.9136 9.3351 56.4401 13.6853 56.4401Z" stroke="#007D9C" stroke-width="2.5" stroke-linecap="round" stroke-linejoin="round"/>
<path d="M54.3142 56.4401C58.6643 56.4401 62.1908 52.9136 62.1908 48.5634C62.1908 44.2133 58.6643 40.6868 54.3142 40.6868C49.964 40.6868 46.4375 44.2133 46.4375 48.5634C46.4375 52.9136 49.964 56.4401 54.3142 56.4401Z" stroke="#007D9C" stroke-width="2.5" stroke-linecap="round" stroke-linejoin="round"/>
</svg>
