<svg width="68" height="68" viewBox="0 0 68 68" fill="none" xmlns="http://www.w3.org/2000/svg">
<path d="M56.6654 23.375V51C56.6654 59.5 51.5937 62.3333 45.332 62.3333H22.6654C16.4037 62.3333 11.332 59.5 11.332 51V23.375C11.332 14.1666 16.4037 12.0416 22.6654 12.0416C22.6654 13.7983 23.3736 15.3849 24.5353 16.5466C25.697 17.7083 27.2837 18.4166 29.0404 18.4166H38.957C42.4704 18.4166 45.332 15.555 45.332 12.0416C51.5937 12.0416 56.6654 14.1666 56.6654 23.375Z" stroke="#007D9C" stroke-width="2.5" stroke-linecap="round" stroke-linejoin="round"/>
<path d="M45.3346 12.0416C45.3346 15.555 42.473 18.4166 38.9596 18.4166H29.043C27.2863 18.4166 25.6996 17.7083 24.5379 16.5466C23.3762 15.3849 22.668 13.7983 22.668 12.0416C22.668 8.52829 25.5296 5.66663 29.043 5.66663H38.9596C40.7163 5.66663 42.303 6.37497 43.4647 7.53664C44.6264 8.6983 45.3346 10.285 45.3346 12.0416Z" stroke="#007D9C" stroke-width="2.5" stroke-linecap="round" stroke-linejoin="round"/>
<path d="M22.668 36.8334H34.0013" stroke="#007D9C" stroke-width="2.5" stroke-linecap="round" stroke-linejoin="round"/>
<path d="M22.668 48.1666H45.3346" stroke="#007D9C" stroke-width="2.5" stroke-linecap="round" stroke-linejoin="round"/>
</svg>
