<svg width="71" height="71" viewBox="0 0 71 71" fill="none" xmlns="http://www.w3.org/2000/svg">
<path d="M22.1289 54.2853L31.2997 61.3853C32.4831 62.5686 35.1456 63.1603 36.9206 63.1603H48.1622C51.7122 63.1603 55.5581 60.4978 56.4456 56.9478L63.5456 35.352C65.0247 31.2103 62.3622 27.6603 57.9247 27.6603H46.0914C44.3164 27.6603 42.8372 26.1811 43.1331 24.1103L44.6122 14.6436C45.2039 11.9811 43.4289 9.0228 40.7664 8.1353C38.3997 7.2478 35.4414 8.43114 34.2581 10.2061L22.1289 28.252" stroke="#007D9C" stroke-width="2.5" stroke-miterlimit="10"/>
<path d="M7.03906 54.2854V25.2937C7.03906 21.152 8.81406 19.6729 12.9557 19.6729H15.9141C20.0557 19.6729 21.8307 21.152 21.8307 25.2937V54.2854C21.8307 58.427 20.0557 59.9062 15.9141 59.9062H12.9557C8.81406 59.9062 7.03906 58.427 7.03906 54.2854Z" stroke="#007D9C" stroke-width="2.5" stroke-linecap="round" stroke-linejoin="round"/>
</svg>
