<svg width="85" height="85" viewBox="0 0 85 85" fill="none" xmlns="http://www.w3.org/2000/svg">
<path d="M60.916 43.9166C51.5306 43.9166 43.916 51.5313 43.916 60.9167C43.916 64.1042 44.8014 67.1146 46.3952 69.6646C49.3348 74.5875 54.7181 77.9166 60.916 77.9166C67.1139 77.9166 72.5327 74.5875 75.4369 69.6646C76.9952 67.1146 77.916 64.1042 77.916 60.9167C77.916 51.5313 70.3014 43.9166 60.916 43.9166ZM69.3452 58.6854L60.2785 67.0437C59.7827 67.5041 59.1098 67.7521 58.4723 67.7521C57.7993 67.7521 57.1264 67.5042 56.5952 66.9729L52.416 62.7938C51.3889 61.7667 51.3889 60.0667 52.416 59.0396C53.4431 58.0125 55.1431 58.0125 56.1702 59.0396L58.5431 61.4125L65.7327 54.7541C66.7952 53.7625 68.4952 53.8333 69.4868 54.8958C70.4785 55.9937 70.4077 57.6938 69.3452 58.6854Z" fill="#00565F"/>
<path opacity="0.4" d="M77.9173 30.7772C77.9173 34.9917 77.2444 38.8876 76.0757 42.5001C75.3319 44.873 74.3756 47.1396 73.2423 49.2292C70.1256 45.9355 65.7694 43.9167 60.9173 43.9167C51.5319 43.9167 43.9173 51.5314 43.9173 60.9168C43.9173 65.273 45.5819 69.2396 48.2736 72.25C46.9632 72.8521 45.759 73.348 44.6965 73.7021C43.4923 74.1271 41.509 74.1271 40.3048 73.7021C31.7694 70.798 14.5215 60.2084 8.92565 42.5001C7.7569 38.8876 7.08398 34.9917 7.08398 30.7772C7.08398 19.8334 15.9027 10.9792 26.7757 10.9792C33.1861 10.9792 38.9236 14.0958 42.5006 18.8771C46.0777 14.0958 51.8152 10.9792 58.2256 10.9792C69.0986 10.9792 77.9173 19.8334 77.9173 30.7772Z" fill="#00565F"/>
</svg>
