<svg width="18" height="18" viewBox="0 0 18 18" fill="none" xmlns="http://www.w3.org/2000/svg">
<path d="M12.331 0H8.75838C8.52632 0 8.30376 0.0921872 8.13966 0.256282C7.97557 0.420376 7.88338 0.642936 7.88338 0.875V10.9375C7.88349 11.1555 7.82929 11.3701 7.72568 11.5619C7.62207 11.7537 7.47231 11.9167 7.28993 12.0362C7.10754 12.1556 6.89828 12.2277 6.68104 12.246C6.4638 12.2643 6.24542 12.2282 6.04563 12.141C5.84584 12.0537 5.67093 11.9181 5.53669 11.7463C5.40246 11.5745 5.31313 11.372 5.27676 11.1571C5.2404 10.9421 5.25816 10.7215 5.32843 10.5151C5.3987 10.3087 5.51927 10.1231 5.67926 9.975L5.78426 9.8875C5.89277 9.80591 5.9808 9.70018 6.0414 9.57869C6.10199 9.45719 6.13348 9.32327 6.13338 9.1875V5.40225C6.13349 5.27017 6.10369 5.13978 6.04623 5.02086C5.98877 4.90194 5.90513 4.79756 5.80158 4.71557C5.69804 4.63358 5.57727 4.57609 5.44835 4.54741C5.31942 4.51874 5.18567 4.51962 5.05713 4.55C3.49007 4.91932 2.11346 5.85181 1.18918 7.17005C0.264908 8.4883 -0.142526 10.1003 0.0443956 11.6994C0.231318 13.2985 0.999551 14.7731 2.20294 15.8427C3.40633 16.9122 4.96089 17.5021 6.57088 17.5L6.78351 17.4956C8.48612 17.4404 10.1005 16.7253 11.2855 15.5015C12.4705 14.2777 13.1331 12.641 13.1334 10.9375V8.575L13.4055 8.70888C14.3873 9.17263 15.4469 9.46838 16.5468 9.57775C16.6684 9.58986 16.7913 9.57632 16.9074 9.53803C17.0236 9.49973 17.1304 9.43752 17.221 9.3554C17.3116 9.27329 17.384 9.1731 17.4335 9.06129C17.483 8.94948 17.5085 8.82853 17.5084 8.70625V5.17738C17.5084 4.97051 17.435 4.77035 17.3014 4.61241C17.1679 4.45447 16.9826 4.34897 16.7786 4.31463C15.8832 4.1627 15.0572 3.73614 14.4149 3.09403C13.7727 2.45191 13.3459 1.62599 13.1938 0.730625C13.1596 0.526472 13.0542 0.341037 12.8962 0.207268C12.7383 0.0734997 12.538 6.0767e-05 12.331 0Z" fill="#007D9C"/>
</svg>
