<svg width="20" height="20" viewBox="0 0 20 20" fill="none" xmlns="http://www.w3.org/2000/svg">
<path d="M15.8831 15.5583L14.0997 12L12.3164 15.5583" stroke="#191919" stroke-opacity="0.7" stroke-width="1.6" stroke-linecap="round" stroke-linejoin="round"/>
<path d="M12.6416 14.925H15.5749" stroke="#191919" stroke-opacity="0.7" stroke-width="1.6" stroke-linecap="round" stroke-linejoin="round"/>
<path d="M14.0995 18.3333C11.7662 18.3333 9.86621 16.4417 9.86621 14.1C9.86621 11.7667 11.7579 9.8667 14.0995 9.8667C16.4329 9.8667 18.3329 11.7583 18.3329 14.1C18.3329 16.4417 16.4412 18.3333 14.0995 18.3333Z" stroke="#191919" stroke-opacity="0.7" stroke-width="1.6" stroke-linecap="round" stroke-linejoin="round"/>
<path d="M4.18366 1.6665H7.45033C9.17533 1.6665 10.0087 2.49985 9.967 4.18319V7.44984C10.0087 9.17484 9.17533 10.0082 7.45033 9.96652H4.18366C2.50033 9.99986 1.66699 9.1665 1.66699 7.4415V4.17485C1.66699 2.49985 2.50033 1.6665 4.18366 1.6665Z" stroke="#191919" stroke-opacity="0.7" stroke-width="1.6" stroke-linecap="round" stroke-linejoin="round"/>
<path d="M7.50833 4.875H4.125" stroke="#191919" stroke-opacity="0.7" stroke-width="1.6" stroke-linecap="round" stroke-linejoin="round"/>
<path d="M5.80762 4.30811V4.87477" stroke="#191919" stroke-opacity="0.7" stroke-width="1.6" stroke-linecap="round" stroke-linejoin="round"/>
<path d="M6.65788 4.86646C6.65788 6.32479 5.51621 7.50811 4.11621 7.50811" stroke="#191919" stroke-opacity="0.7" stroke-width="1.6" stroke-linecap="round" stroke-linejoin="round"/>
<path d="M7.50748 7.50818C6.89915 7.50818 6.34915 7.18317 5.96582 6.6665" stroke="#191919" stroke-opacity="0.7" stroke-width="1.6" stroke-linecap="round" stroke-linejoin="round"/>
<path d="M1.66699 12.4998C1.66699 15.7248 4.27533 18.3332 7.50033 18.3332L6.62532 16.8748" stroke="#191919" stroke-opacity="0.7" stroke-width="1.6" stroke-linecap="round" stroke-linejoin="round"/>
<path d="M18.3333 7.49984C18.3333 4.27484 15.725 1.6665 12.5 1.6665L13.375 3.12484" stroke="#191919" stroke-opacity="0.7" stroke-width="1.6" stroke-linecap="round" stroke-linejoin="round"/>
</svg>
