<svg width="48" height="48" viewBox="0 0 48 48" fill="none" xmlns="http://www.w3.org/2000/svg">
<path d="M43.7125 24.9925H42.3394V11.0094C42.3394 10.7939 42.2538 10.5872 42.1014 10.4349C41.949 10.2825 41.7424 10.1969 41.5269 10.1969H39.8125V8.125C39.8125 7.90951 39.7269 7.70285 39.5745 7.55048C39.4222 7.3981 39.2155 7.3125 39 7.3125H37.8138V0.8125C37.8138 0.59701 37.7281 0.390349 37.5758 0.237976C37.4234 0.085602 37.2167 0 37.0013 0C36.7858 0 36.5791 0.085602 36.4267 0.237976C36.2744 0.390349 36.1888 0.59701 36.1888 0.8125V7.3125H35.0106C34.7951 7.3125 34.5885 7.3981 34.4361 7.55048C34.2837 7.70285 34.1981 7.90951 34.1981 8.125V10.1969H32.5C32.2845 10.1969 32.0778 10.2825 31.9255 10.4349C31.7731 10.5872 31.6875 10.7939 31.6875 11.0094V24.9925H27.9175V17.5256C27.9129 16.6889 27.6562 15.8731 27.1807 15.1846C26.7053 14.4961 26.0333 13.9669 25.2525 13.6663L23.7413 13.0975C23.1811 12.884 22.6987 12.5057 22.3579 12.0125C22.017 11.5194 21.8336 10.9345 21.8319 10.335V8.0275H22.5713C22.7867 8.0275 22.9934 7.9419 23.1458 7.78952C23.2981 7.63715 23.3838 7.43049 23.3838 7.215V0.8125C23.3838 0.59701 23.2981 0.390349 23.1458 0.237976C22.9934 0.085602 22.7867 0 22.5713 0H5.34625C5.13076 0 4.9241 0.085602 4.77173 0.237976C4.61935 0.390349 4.53375 0.59701 4.53375 0.8125V7.215C4.53375 7.43049 4.61935 7.63715 4.77173 7.78952C4.9241 7.9419 5.13076 8.0275 5.34625 8.0275H6.08562V10.335C6.08388 10.9345 5.90048 11.5194 5.55962 12.0125C5.21876 12.5057 4.73643 12.884 4.17625 13.0975L2.665 13.6663C1.88419 13.9669 1.2122 14.4961 0.73677 15.1846C0.261338 15.8731 0.004572 16.6889 0 17.5256V42.4856C0 43.7161 0.48879 44.8961 1.35884 45.7662C1.78965 46.197 2.30109 46.5387 2.86396 46.7719C3.42684 47.005 4.03012 47.125 4.63938 47.125H43.7125C44.6175 47.125 45.4855 46.7655 46.1255 46.1255C46.7655 45.4855 47.125 44.6175 47.125 43.7125V28.4375C47.1282 27.9869 47.0424 27.5402 46.8724 27.1229C46.7025 26.7056 46.4517 26.326 46.1346 26.0059C45.8176 25.6857 45.4403 25.4314 45.0247 25.2575C44.609 25.0836 44.1631 24.9936 43.7125 24.9925ZM6.15875 1.625H21.7588V6.4025H6.15875V1.625ZM35.8231 8.9375H38.1875V10.1969H35.8231V8.9375ZM33.3125 11.8219H40.7306V14.7469H38.7563C38.5408 14.7469 38.3341 14.8325 38.1817 14.9849C38.0294 15.1372 37.9438 15.3439 37.9438 15.5594C37.9438 15.7749 38.0294 15.9815 38.1817 16.1339C38.3341 16.2863 38.5408 16.3719 38.7563 16.3719H40.7144V18.4925H37.0744C36.8589 18.4925 36.6522 18.5781 36.4999 18.7305C36.3475 18.8828 36.2619 19.0895 36.2619 19.305C36.2619 19.5205 36.3475 19.7271 36.4999 19.8795C36.6522 20.0319 36.8589 20.1175 37.0744 20.1175H40.7144V22.2381H38.7563C38.5408 22.2381 38.3341 22.3237 38.1817 22.4761C38.0294 22.6285 37.9438 22.8351 37.9438 23.0506C37.9438 23.2661 38.0294 23.4728 38.1817 23.6251C38.3341 23.7775 38.5408 23.8631 38.7563 23.8631H40.7144V24.9925H33.3125V11.8219ZM10.725 24.9925C10.2744 24.9936 9.8285 25.0836 9.41283 25.2575C8.99716 25.4314 8.61995 25.6857 8.30286 26.0059C7.98576 26.326 7.73504 26.7056 7.56508 27.1229C7.39512 27.5402 7.30929 27.9869 7.3125 28.4375V35.2787H1.625V20.0606H26.2925V24.9925H10.725ZM3.25 15.1938L4.75313 14.625C5.62152 14.2944 6.36915 13.7082 6.89722 12.9436C7.42529 12.1791 7.70892 11.2723 7.71062 10.3431V8.0275H20.2069V10.335C20.2069 11.2656 20.4898 12.1741 21.018 12.9403C21.5462 13.7064 22.2947 14.294 23.1644 14.625L24.6756 15.2019C25.151 15.3799 25.5611 15.6982 25.8513 16.1147C26.1415 16.5312 26.2982 17.0261 26.3006 17.5338V18.4438H1.625V17.5256C1.62738 17.018 1.78409 16.5231 2.07432 16.1066C2.36456 15.6901 2.77459 15.3717 3.25 15.1938ZM1.625 42.4856V36.8713H7.3125V43.7125C7.31378 44.3455 7.49405 44.9651 7.8325 45.5H4.63938C3.83991 45.5 3.07319 45.1824 2.50789 44.6171C1.94258 44.0518 1.625 43.2851 1.625 42.4856ZM45.5 43.7125C45.4979 44.1859 45.3089 44.6393 44.9741 44.9741C44.6393 45.3089 44.1859 45.4979 43.7125 45.5H10.725C10.2516 45.4979 9.7982 45.3089 9.46341 44.9741C9.12865 44.6393 8.93964 44.1859 8.9375 43.7125V28.4375C8.93964 27.9641 9.12865 27.5107 9.46341 27.1759C9.7982 26.8412 10.2516 26.6521 10.725 26.65H43.7125C44.1859 26.6521 44.6393 26.8412 44.9741 27.1759C45.3089 27.5107 45.4979 27.9641 45.5 28.4375V43.7125Z" fill="#007D9C"/>
</svg>
