<svg width="20" height="16" viewBox="0 0 20 16" fill="none" xmlns="http://www.w3.org/2000/svg">
<path d="M14.875 0C15.4495 0 16.0184 0.113163 16.5492 0.333027C17.08 0.552891 17.5623 0.875152 17.9686 1.28141C18.3748 1.68766 18.6971 2.16996 18.917 2.70076C19.1368 3.23156 19.25 3.80047 19.25 4.375V11.375C19.25 11.9495 19.1368 12.5184 18.917 13.0492C18.6971 13.58 18.3748 14.0623 17.9686 14.4686C17.5623 14.8748 17.08 15.1971 16.5492 15.417C16.0184 15.6368 15.4495 15.75 14.875 15.75H4.375C3.80047 15.75 3.23156 15.6368 2.70076 15.417C2.16996 15.1971 1.68766 14.8748 1.28141 14.4686C0.460936 13.6481 0 12.5353 0 11.375V4.375C0 3.21468 0.460936 2.10188 1.28141 1.28141C2.10188 0.460936 3.21468 0 4.375 0H14.875ZM7 5.25V10.5C7.00012 10.6547 7.04128 10.8067 7.11927 10.9403C7.19726 11.074 7.3093 11.1846 7.44397 11.2608C7.57863 11.337 7.7311 11.3762 7.88583 11.3742C8.04056 11.3723 8.19201 11.3294 8.32475 11.2499L12.6997 8.62488C12.8291 8.54708 12.9362 8.43715 13.0105 8.30575C13.0848 8.17435 13.1238 8.02596 13.1238 7.875C13.1238 7.72404 13.0848 7.57565 13.0105 7.44425C12.9362 7.31285 12.8291 7.20292 12.6997 7.12512L8.32475 4.50012C8.19201 4.42059 8.04056 4.37767 7.88583 4.37576C7.7311 4.37384 7.57863 4.41299 7.44397 4.48922C7.3093 4.56545 7.19726 4.67602 7.11927 4.80967C7.04128 4.94332 7.00012 5.09526 7 5.25Z" fill="#007D9C"/>
</svg>
